<?xml version="1.0" standalone="no"?>
<!DOCTYPE svg PUBLIC "-//W3C//DTD SVG 20010904//EN"
 "http://www.w3.org/TR/2001/REC-SVG-20010904/DTD/svg10.dtd">
<svg version="1.0" xmlns="http://www.w3.org/2000/svg"
 width="679.000000pt" height="773.000000pt" viewBox="0 0 679.000000 773.000000"
 preserveAspectRatio="xMidYMid meet">

<g transform="translate(0.000000,773.000000) scale(0.100000,-0.100000)"
fill="#000000" stroke="none">
<path d="M3626 7708 c-3 -7 -7 -38 -10 -68 -8 -75 -9 -7398 -1 -7410 4 -7 295
-10 826 -10 l819 0 -2 3747 -3 3748 -813 3 c-645 2 -813 0 -816 -10z m473
-370 c13 -38 6 -49 -14 -22 -13 17 -14 17 -15 2 0 -10 -4 -18 -10 -18 -12 0
-12 0 1 39 14 39 24 39 38 -1z m71 23 c0 -5 -8 -8 -17 -7 -12 1 -18 -6 -18
-19 0 -13 6 -20 18 -19 9 1 17 -3 17 -8 0 -15 -42 -5 -53 14 -8 12 -7 21 2 32
14 17 51 22 51 7z m50 -1 c0 -5 -6 -10 -12 -10 -9 0 -8 -4 2 -10 10 -6 11 -10
3 -10 -7 0 -13 -5 -13 -11 0 -20 24 -3 30 22 5 22 11 24 73 26 37 1 67 -2 67
-8 0 -5 -8 -9 -17 -10 -15 0 -15 -2 2 -9 18 -8 18 -9 2 -9 -10 -1 -15 -6 -12
-11 4 -6 11 -8 16 -5 5 4 9 1 9 -4 0 -6 -12 -11 -26 -11 -23 0 -25 3 -20 24 4
16 1 26 -9 30 -11 4 -15 -2 -15 -24 0 -17 -4 -30 -10 -30 -5 0 -10 11 -10 25
0 16 -6 25 -15 25 -9 0 -15 -9 -15 -25 0 -22 -4 -25 -35 -25 -33 0 -35 2 -35
35 0 28 4 35 20 35 11 0 20 -4 20 -10z m229 1 c9 -6 11 -18 7 -35 -5 -20 -13
-26 -34 -26 -25 0 -28 3 -28 35 0 29 4 35 21 35 11 0 26 -4 34 -9z m61 -2 c0
-5 -4 -7 -10 -4 -5 3 -10 1 -10 -4 0 -6 6 -11 13 -12 10 0 10 -2 0 -6 -7 -2
-13 -9 -13 -14 0 -4 7 -5 17 -2 11 4 14 3 9 -5 -4 -7 -16 -12 -27 -12 -15 0
-19 7 -19 35 0 28 4 35 20 35 11 0 20 -5 20 -11z m91 -5 c17 -21 0 -49 -31
-49 -31 0 -48 28 -31 49 8 9 21 16 31 16 10 0 23 -7 31 -16z m33 -14 c-7 -32
-5 -34 20 -24 11 4 14 13 10 29 -5 19 -2 23 20 23 17 0 28 -7 32 -22 7 -20 7
-20 17 4 5 14 11 20 13 14 6 -15 -13 -64 -26 -64 -5 0 -12 11 -16 25 -3 14
-11 25 -16 25 -6 0 -7 -11 -4 -25 6 -23 4 -25 -32 -25 -37 0 -38 1 -38 35 0
22 5 35 13 35 9 0 11 -9 7 -30z m174 -12 c10 -23 9 -28 -3 -28 -8 0 -15 8 -15
18 -1 15 -2 15 -15 -2 -21 -28 -26 -16 -9 23 15 36 23 34 42 -11z m-662 -101
c-3 -11 0 -27 6 -34 18 -22 0 -28 -24 -7 -19 17 -21 17 -15 2 5 -13 1 -18 -13
-18 -17 0 -20 7 -20 44 0 34 4 45 18 49 29 6 55 -12 48 -36z m100 28 c18 -14
17 -14 -13 -9 -26 5 -34 3 -39 -11 -8 -20 5 -46 26 -53 9 -3 11 1 7 12 -5 11
-1 16 13 16 31 0 22 -30 -13 -43 -25 -9 -69 35 -61 60 8 21 33 43 49 43 6 0
20 -7 31 -15z m85 -1 c12 -15 11 -16 -9 -10 -17 6 -22 3 -22 -9 0 -11 5 -15
15 -11 9 3 15 0 15 -9 0 -9 -6 -12 -15 -9 -10 4 -15 0 -15 -11 0 -12 6 -16 20
-12 11 3 20 1 20 -4 0 -5 -15 -9 -32 -9 -32 0 -33 1 -33 42 0 34 4 44 20 50
11 3 21 6 21 7 1 1 8 -6 15 -15z m-356 -26 l7 -33 11 33 c8 27 15 32 41 32 30
0 31 -1 31 -45 0 -34 -4 -45 -15 -45 -12 0 -15 9 -12 40 2 22 0 40 -5 40 -6 0
-17 -18 -26 -40 -8 -22 -19 -40 -24 -40 -5 0 -19 20 -31 45 -21 43 -21 45 -3
45 13 0 21 -10 26 -32z m423 10 l25 -23 -6 23 c-4 16 -1 22 12 22 13 0 15 -8
13 -45 -2 -25 -8 -45 -12 -45 -5 0 -21 15 -36 33 l-27 32 5 -32 c3 -23 1 -33
-9 -33 -9 0 -13 14 -13 45 0 51 11 56 48 23z m152 13 c0 -5 -6 -8 -12 -7 -7 0
-14 -3 -15 -9 -1 -5 5 -9 13 -7 8 2 14 -4 14 -11 0 -8 -6 -14 -12 -13 -7 0
-15 -3 -18 -9 -3 -5 8 -10 23 -10 38 -1 55 29 31 56 -16 18 -16 19 4 19 11 0
23 -6 26 -12 5 -10 7 -10 12 0 3 6 13 12 21 12 14 0 13 -3 -2 -20 -18 -20 -18
-21 5 -45 21 -22 21 -25 5 -25 -10 0 -24 8 -31 18 -12 16 -13 16 -19 0 -6 -14
-19 -18 -59 -18 l-51 0 0 45 c0 44 1 45 33 45 17 0 32 -4 32 -9z m276 -21 c2
-43 4 -50 12 -50 5 0 14 18 21 40 6 22 17 40 24 40 7 0 21 -20 33 -45 l21 -45
-23 0 c-17 0 -22 4 -18 15 4 9 0 15 -10 15 -9 0 -16 -7 -16 -14 0 -11 -14 -15
-58 -15 l-57 1 3 37 c3 32 1 37 -18 38 -20 2 -22 -2 -18 -38 3 -34 1 -39 -17
-39 -18 0 -20 5 -17 42 4 35 2 40 -12 35 -9 -4 -16 -2 -16 4 0 6 32 9 83 7 80
-3 82 -4 83 -28z m201 -103 c3 -4 -272 -7 -613 -6 -340 1 -608 4 -594 9 30 9
1197 6 1207 -3z m-1025 -52 c-3 -18 0 -25 11 -25 22 0 31 18 17 34 -8 11 -6
14 15 12 17 -1 23 -5 20 -15 -3 -7 0 -20 6 -27 14 -17 -2 -19 -19 -2 -9 9 -12
9 -12 0 0 -7 -13 -12 -30 -12 -27 0 -30 3 -30 30 0 19 5 30 14 30 9 0 12 -8 8
-25z m169 -2 l1 -28 11 28 c14 34 21 34 36 1 13 -30 6 -47 -10 -24 -8 11 -12
12 -16 3 -2 -7 -11 -13 -19 -13 -8 0 -14 6 -15 13 0 10 -2 10 -6 0 -8 -22 -23
-14 -23 12 0 14 -4 25 -10 25 -5 0 -10 -11 -10 -25 0 -14 -5 -25 -11 -25 -6 0
-8 9 -4 21 5 14 2 25 -6 30 -9 6 3 9 34 9 44 0 47 -1 48 -27z m95 10 c13 -17
13 -17 14 0 0 9 7 17 15 17 10 0 15 -10 14 -32 l-1 -33 -7 30 -7 30 -7 -27
c-10 -36 -20 -35 -34 2 -13 34 -7 39 13 13z m93 -13 l4 -25 6 25 c7 24 51 43
51 22 0 -5 -8 -9 -17 -8 -13 1 -17 -5 -16 -20 2 -22 -26 -30 -39 -10 -5 8 -8
7 -8 -1 0 -7 -4 -13 -10 -13 -5 0 -10 14 -10 31 0 24 4 30 18 27 9 -2 19 -14
21 -28z m78 -17 c-3 -10 -5 -2 -5 17 0 19 2 27 5 18 2 -10 2 -26 0 -35z m42
30 c10 -17 10 -17 11 0 0 9 5 17 11 17 6 0 8 -7 5 -16 -3 -9 -6 -23 -6 -32 -1
-14 -4 -13 -20 6 l-19 22 -4 -22 c-3 -17 -5 -14 -6 10 -1 35 12 42 28 15z m67
-13 c1 -32 -10 -40 -20 -14 -4 9 -1 23 5 30 15 18 14 19 15 -16z m34 0 c0 -31
-15 -30 -16 1 -1 15 3 26 7 23 5 -3 9 -14 9 -24z m32 0 c3 -20 0 -30 -9 -30
-8 0 -13 12 -13 30 0 17 4 30 9 30 5 0 11 -13 13 -30z m58 12 c0 -13 2 -13 16
4 14 18 15 18 8 -6 -9 -36 -21 -45 -29 -21 -8 27 -25 28 -18 1 3 -11 0 -20 -6
-20 -6 0 -11 13 -11 28 0 21 5 28 20 29 12 1 20 -4 20 -15z m63 11 c-20 -7
-16 -43 5 -44 10 0 12 -2 4 -6 -7 -3 -19 -3 -26 0 -19 8 -8 57 13 56 10 0 11
-2 4 -6z m52 -23 c0 -16 -4 -29 -10 -27 -16 6 -18 39 -3 48 7 5 13 9 13 9 0 0
0 -13 0 -30z m48 22 c3 7 5 -3 5 -22 0 -19 -2 -29 -5 -22 -3 9 -9 10 -17 3
-10 -8 -13 -3 -13 19 0 22 3 27 13 19 8 -7 14 -6 17 3z m35 -9 c-1 -10 1 -24
5 -30 5 -9 3 -13 -7 -13 -11 0 -16 9 -16 30 0 17 5 30 11 30 5 0 9 -8 7 -17z
m-448 -29 c0 -8 -4 -12 -10 -9 -5 3 -10 10 -10 16 0 5 5 9 10 9 6 0 10 -7 10
-16z m-783 -611 c-3 -10 -5 -4 -5 12 0 17 2 24 5 18 2 -7 2 -21 0 -30z m0 -85
c-3 -7 -5 -2 -5 12 0 14 2 19 5 13 2 -7 2 -19 0 -25z m0 -570 c-2 -18 -4 -6
-4 27 0 33 2 48 4 33 2 -15 2 -42 0 -60z m0 -120 c-3 -7 -5 -2 -5 12 0 14 2
19 5 13 2 -7 2 -19 0 -25z m0 -100 c-2 -13 -4 -5 -4 17 -1 22 1 32 4 23 2 -10
2 -28 0 -40z m0 -460 c-3 -7 -5 -2 -5 12 0 14 2 19 5 13 2 -7 2 -19 0 -25z
m863 -589 c0 -6 -10 -19 -22 -30 -20 -16 -20 -18 -5 -19 9 0 17 -4 17 -10 0
-14 -5 -13 -39 8 -25 15 -27 20 -16 35 15 21 26 22 19 2 -4 -8 -1 -15 5 -15 6
0 11 7 11 15 0 8 5 15 11 15 5 0 7 5 3 12 -4 7 -3 8 4 4 7 -4 12 -12 12 -17z
m-78 -11 c-5 -20 -17 -24 -27 -8 -8 13 1 27 18 27 9 0 12 -7 9 -19z m-245 -5
c14 -17 14 -17 9 0 -3 9 -1 17 4 17 12 0 13 -30 1 -49 -8 -12 -12 -12 -25 -2
-16 13 -23 51 -10 51 4 0 13 -8 21 -17z m63 -18 c12 -19 19 -39 16 -44 -4 -5
-2 -12 4 -16 5 -3 10 -16 9 -28 l0 -22 -11 22 c-11 22 -49 39 -45 20 1 -6 -7
-13 -17 -15 -14 -3 -17 0 -13 11 3 9 1 18 -6 20 -17 6 -4 18 21 20 22 1 37 33
21 43 -9 5 -13 24 -5 24 2 0 14 -16 26 -35z m415 16 c-7 -22 18 -51 43 -51 12
0 13 -3 5 -11 -6 -6 -9 -18 -5 -27 4 -12 1 -14 -12 -9 -10 4 -23 7 -29 8 -7 0
-3 4 8 9 11 5 14 9 7 9 -22 1 -52 -19 -52 -34 0 -8 -4 -15 -10 -15 -5 0 -10 9
-10 20 0 11 5 20 10 20 6 0 10 7 10 15 0 8 -7 15 -15 15 -8 0 -15 5 -15 10 0
16 34 8 43 -10 5 -10 6 -7 3 9 -3 13 1 32 7 42 15 24 20 24 12 0z m50 6 c13
17 14 17 21 -1 11 -27 -24 -52 -44 -32 -10 9 -12 21 -7 33 8 17 8 17 12 0 5
-18 5 -18 18 0z m-695 -19 c0 -9 4 -8 10 2 9 13 10 13 10 0 0 -25 -16 -41 -33
-34 -17 6 -22 25 -10 37 10 11 23 8 23 -5z m875 -27 c-15 -15 -35 -7 -35 15 0
8 5 12 10 9 6 -3 10 -1 10 5 0 7 5 6 14 -2 12 -11 12 -15 1 -27z m-608 -13
c-3 -7 -5 -2 -5 12 0 14 2 19 5 13 2 -7 2 -19 0 -25z m20 0 c-3 -7 -5 -2 -5
12 0 14 2 19 5 13 2 -7 2 -19 0 -25z m133 11 c0 7 5 9 10 6 18 -11 11 -34 -10
-30 -25 5 -26 -7 -1 -22 15 -10 20 -9 25 2 3 8 10 15 15 15 6 0 4 -16 -5 -37
-12 -31 -12 -35 -1 -20 13 16 15 16 21 1 3 -9 4 -19 1 -24 -3 -4 2 -23 10 -41
l15 -34 -2 33 c-2 23 3 37 14 43 14 8 15 15 8 35 -16 40 -10 53 6 15 8 -18 22
-40 30 -48 12 -13 14 -11 14 12 0 15 4 24 10 20 6 -4 8 -11 5 -16 -9 -14 8
-11 34 8 18 12 23 13 19 2 -2 -8 -13 -19 -24 -24 -42 -22 -46 -26 -33 -41 8
-10 16 -11 29 -4 26 14 34 12 21 -3 -6 -8 -9 -16 -6 -18 2 -3 -6 -5 -20 -4
-13 0 -34 10 -48 23 -21 20 -25 21 -37 7 -16 -19 -5 -32 14 -16 11 9 17 4 32
-31 10 -24 20 -46 22 -49 1 -4 -25 7 -58 23 -33 15 -60 34 -59 41 4 29 -2 46
-13 42 -7 -3 -18 -1 -23 3 -17 11 -52 115 -47 137 4 19 5 19 18 0 8 -10 14
-13 14 -6z m147 -11 c-3 -8 -6 -5 -6 6 -1 11 2 17 5 13 3 -3 4 -12 1 -19z
m-518 -24 c1 9 26 -23 48 -59 6 -11 16 -19 22 -17 6 1 11 -7 11 -19 0 -11 4
-18 9 -15 5 3 12 -4 16 -17 4 -13 8 -17 12 -9 7 17 24 5 17 -12 -3 -8 0 -17 6
-21 6 -3 10 -3 9 2 -3 19 2 23 21 13 18 -10 19 -9 10 15 -14 36 -13 36 15 23
26 -12 36 -34 10 -24 -13 5 -13 2 1 -19 16 -24 15 -25 -4 -25 -12 0 -24 5 -28
11 -5 8 -10 6 -16 -5 -6 -10 -7 -20 -4 -23 3 -4 6 -1 6 5 0 7 5 12 11 12 5 0
8 -3 5 -8 -2 -4 3 -23 11 -42 9 -20 17 -29 20 -22 4 10 8 10 20 1 8 -7 26 -13
39 -14 23 -1 24 0 7 12 -10 6 -28 20 -39 29 l-22 18 21 45 c12 25 23 48 24 50
1 2 9 -2 18 -9 12 -10 15 -10 15 4 0 9 -5 16 -11 16 -5 0 -7 5 -4 10 4 6 2 17
-4 24 -8 9 -8 22 -2 39 15 40 31 42 19 3 -9 -29 -8 -37 6 -51 9 -10 14 -25 11
-35 -3 -10 -1 -21 5 -25 6 -3 10 3 10 14 0 12 4 21 9 21 6 0 9 -12 8 -27 -2
-23 -11 -31 -55 -48 -54 -20 -69 -36 -29 -28 18 4 26 -4 46 -44 18 -35 26 -43
29 -30 2 10 -4 27 -13 37 -13 14 -14 23 -6 37 7 11 11 13 11 4 0 -7 6 -11 14
-8 14 6 14 0 7 -95 -2 -26 -26 -22 -56 8 -14 14 -30 22 -36 19 -5 -4 -16 -1
-24 5 -9 7 -15 8 -15 2 0 -5 15 -15 33 -23 38 -15 49 -29 36 -45 -7 -9 -18 -9
-45 1 -41 14 -74 42 -35 30 26 -8 26 -7 -17 55 -20 29 -23 30 -17 10 4 -14 4
-22 0 -18 -13 12 -34 -12 -28 -30 4 -12 -1 -10 -20 7 -15 14 -24 27 -21 30 3
3 10 -1 15 -9 9 -13 10 -13 6 0 -2 8 -17 15 -33 16 -16 1 -23 0 -16 -3 19 -7
14 -19 -8 -19 -21 0 -26 11 -10 21 5 3 8 11 6 18 -1 7 -1 9 1 5 10 -17 23 -7
15 10 -5 9 -7 23 -5 30 3 6 0 12 -7 12 -6 0 -8 -4 -5 -10 3 -5 1 -10 -6 -10
-6 0 -9 8 -6 19 2 10 0 26 -6 36 -8 15 -7 17 9 11 14 -5 16 -4 8 4 -9 9 -17 9
-32 -1 -17 -11 -25 -8 -58 19 l-38 32 -12 -28 c-8 -17 -13 -21 -13 -10 -1 9
-13 25 -28 36 -23 17 -26 23 -15 34 10 10 14 9 18 -10 4 -12 10 -22 15 -22 5
0 5 8 2 17 -6 14 -1 13 29 -5 39 -24 59 -29 40 -10 -20 20 -13 32 8 13 11 -10
20 -23 19 -29 -3 -22 1 -36 10 -36 6 0 5 15 -1 36 -7 25 -6 40 1 47 16 16 13
31 -4 17 -12 -10 -15 -7 -21 14 -8 34 8 60 17 26 4 -14 7 -21 8 -16z m770 -30
c-6 -8 -9 -17 -6 -21 4 -3 2 -12 -4 -20 -7 -8 -8 -13 -1 -13 5 0 17 10 26 23
l17 22 -5 -23 c-4 -19 -1 -22 12 -17 13 5 14 3 5 -6 -6 -6 -22 -12 -34 -13
-12 0 -24 -7 -25 -14 -1 -7 0 -8 3 -2 2 5 10 10 16 10 6 0 4 -7 -5 -17 -14
-14 -20 -14 -33 -3 -13 11 -13 15 -3 21 9 6 9 9 1 9 -6 0 -15 -5 -19 -12 -10
-16 -12 -58 -2 -58 4 0 4 -8 1 -17 -5 -13 -8 -14 -11 -3 -3 8 -9 2 -17 -16
-12 -30 -10 -54 6 -54 4 0 6 6 3 13 -5 15 19 40 43 43 11 2 12 -1 2 -12 -8
-10 -8 -14 0 -14 6 0 17 11 23 25 9 19 14 22 25 14 10 -9 13 -8 13 5 0 10 4
15 9 12 5 -3 14 1 21 9 9 10 9 15 1 15 -6 0 -11 5 -11 12 0 9 3 9 13 0 17 -18
16 -65 -2 -79 -9 -7 -11 -13 -5 -13 16 0 37 27 30 38 -3 5 3 19 13 31 15 18
20 19 24 6 4 -9 13 -12 23 -8 12 4 15 3 10 -5 -15 -24 -15 -51 0 -45 8 3 14 0
14 -7 0 -8 -9 -10 -24 -6 -14 3 -28 1 -31 -4 -4 -6 -11 -8 -16 -5 -5 4 -19 -1
-31 -9 -12 -9 -17 -16 -10 -16 7 0 11 -4 8 -9 -3 -4 -16 -6 -29 -4 -17 3 -28
-2 -41 -21 -20 -32 -14 -34 13 -4 18 18 24 20 46 10 15 -7 23 -17 20 -22 -11
-18 8 -11 33 13 16 14 26 18 29 10 2 -7 11 -9 20 -6 13 5 15 2 10 -16 -3 -14
-1 -21 6 -18 14 4 16 39 3 48 -4 4 -3 10 3 13 6 4 11 2 11 -4 0 -6 5 -8 10 -5
14 9 13 -8 -2 -23 -9 -9 -8 -12 8 -12 16 0 17 -2 4 -10 -13 -8 -12 -10 3 -10
9 0 17 -4 17 -10 0 -5 -4 -10 -10 -10 -5 0 -6 -8 -3 -17 5 -13 3 -15 -13 -9
-35 14 -66 17 -59 6 3 -5 2 -10 -3 -10 -6 0 -13 7 -16 16 -5 14 -9 12 -25 -7
-23 -28 -28 -25 -36 20 -7 41 -13 51 -28 51 -8 0 -8 -3 -2 -8 15 -10 13 -28
-4 -44 -12 -11 -13 -10 -8 5 6 16 5 16 -17 2 -12 -8 -28 -26 -35 -38 -15 -28
-58 -30 -53 -3 2 9 -2 16 -8 16 -5 0 -10 -5 -10 -11 0 -8 -5 -7 -15 1 -13 11
-13 15 -3 21 7 5 21 6 32 3 11 -4 16 -2 12 4 -8 14 17 59 31 55 9 -3 9 5 1 31
-6 20 -15 36 -20 36 -11 0 -10 -7 2 -30 8 -16 7 -19 -10 -17 -11 1 -20 5 -20
10 0 5 -17 -3 -37 -19 -21 -15 -32 -20 -24 -11 8 11 9 17 2 17 -6 0 -8 11 -4
30 9 46 -20 38 -46 -12 -8 -16 -18 -28 -23 -28 -4 0 -8 -7 -8 -15 0 -9 6 -12
15 -9 8 4 15 2 15 -4 0 -13 -89 -42 -96 -31 -10 16 6 48 21 43 20 -8 74 49 81
85 4 17 10 28 15 25 5 -3 6 2 3 11 -5 12 -10 13 -17 6 -6 -6 -19 -11 -29 -11
-15 0 -16 3 -7 18 14 22 73 27 65 5 -3 -7 -1 -13 5 -13 6 0 9 10 7 23 -2 14 2
22 12 22 21 0 48 27 42 43 -3 7 1 10 11 7 8 -4 17 1 21 11 4 11 2 15 -8 11
-10 -4 -12 0 -9 14 5 19 7 19 22 -5 12 -18 21 -22 31 -16 12 7 12 12 2 22 -6
6 -12 8 -12 3 0 -10 -29 26 -30 38 0 4 5 7 10 7 6 0 10 -7 10 -15 0 -8 5 -15
10 -15 6 0 10 7 10 16 0 11 5 14 16 10 11 -4 15 -2 11 8 -3 8 -3 17 1 21 13
13 14 -46 1 -61z m-810 24 c6 -17 4 -25 -8 -29 -9 -4 -20 -2 -26 3 -7 7 -6 12
2 15 7 2 9 11 6 19 -3 8 0 14 6 14 7 0 15 -10 20 -22z m303 0 c-7 -7 -12 -8
-12 -2 0 6 3 14 7 17 3 4 9 5 12 2 2 -3 -1 -11 -7 -17z m238 1 c0 -6 -4 -7
-10 -4 -5 3 -10 11 -10 16 0 6 5 7 10 4 6 -3 10 -11 10 -16z m327 -4 c-1 -14
-5 -25 -10 -25 -4 0 -11 0 -17 0 -14 0 -13 23 2 38 19 19 27 14 25 -13z m-777
5 c0 -5 -5 -10 -11 -10 -5 0 -7 5 -4 10 3 6 8 10 11 10 2 0 4 -4 4 -10z m20
-42 c0 -16 -3 -19 -11 -11 -6 6 -8 16 -5 22 11 17 16 13 16 -11z m-247 -1 c4
14 5 13 6 -5 1 -25 -24 -41 -40 -25 -5 5 -7 18 -3 28 7 17 8 17 20 1 11 -16
13 -16 17 1z m389 -17 c5 0 8 7 8 15 0 8 5 15 11 15 7 0 9 -10 5 -27 -5 -20
-4 -24 3 -13 13 20 28 3 15 -17 -13 -21 -36 -29 -32 -13 2 7 -10 20 -26 29
-16 9 -32 23 -34 30 -3 10 2 10 19 -2 13 -10 27 -17 31 -17z m687 4 c-14 -17
-30 -9 -23 11 3 7 12 11 20 8 11 -4 12 -9 3 -19z m66 -14 c-11 -18 -35 -11
-35 11 0 11 5 17 10 14 6 -3 10 0 10 7 0 8 5 6 11 -5 5 -9 7 -22 4 -27z
m-1388 8 c-3 -8 -6 -5 -6 6 -1 11 2 17 5 13 3 -3 4 -12 1 -19z m777 6 c3 -9 6
-23 6 -31 0 -13 -3 -13 -15 -3 -16 13 -21 50 -6 50 5 0 12 -7 15 -16z m496 -9
c-11 -13 -10 -14 5 -8 15 5 17 3 12 -11 -4 -10 -7 -23 -7 -29 -1 -19 -30 25
-30 44 0 10 6 19 13 22 18 7 21 -1 7 -18z m-988 -39 c6 4 9 1 6 -6 -2 -6 -18
-18 -36 -26 -30 -12 -33 -12 -30 4 1 9 -1 23 -5 30 -12 17 9 15 27 -4 15 -14
16 -13 17 13 2 24 2 24 6 5 3 -12 9 -19 15 -16z m1052 -7 c-9 -19 -11 -20 -23
-5 -9 11 -10 16 -2 16 6 0 11 8 11 17 0 13 3 14 12 5 8 -8 8 -18 2 -33z m43
-4 c-1 -14 -5 -25 -10 -25 -4 0 -11 0 -17 0 -15 0 -12 16 6 34 21 21 23 20 21
-9z m-997 5 c0 -5 -7 -7 -15 -4 -8 4 -15 8 -15 10 0 2 7 4 15 4 8 0 15 -4 15
-10z m855 0 c-3 -5 -10 -10 -16 -10 -5 0 -9 5 -9 10 0 6 7 10 16 10 8 0 12 -4
9 -10z m-888 -32 c-1 -15 3 -22 12 -20 10 2 12 -5 8 -24 -6 -31 0 -54 14 -54
6 0 6 7 0 18 -12 23 2 48 20 36 8 -4 22 -9 31 -9 28 -2 31 -11 19 -46 -14 -40
-14 -52 -1 -44 16 10 33 -46 19 -59 -8 -8 -13 -8 -16 2 -3 6 -11 12 -19 12 -8
0 -14 8 -14 18 -1 24 -24 52 -45 52 -14 0 -12 -4 9 -21 14 -11 26 -27 26 -34
0 -8 10 -23 21 -34 19 -18 24 -18 44 -5 22 14 55 10 55 -6 0 -15 -24 -24 -28
-12 -7 21 -20 13 -15 -8 9 -33 -28 -20 -70 25 -21 22 -36 33 -35 25 2 -8 -5
-14 -14 -15 -9 0 -24 -9 -31 -20 -12 -15 -18 -17 -29 -8 -8 7 -23 12 -33 13
-11 0 -29 1 -40 2 -11 0 -29 -3 -39 -7 -16 -7 -18 -5 -13 8 3 9 2 17 -4 17 -6
0 -7 5 -4 11 4 6 14 8 22 4 13 -4 14 -3 3 10 -14 17 -7 19 20 5 16 -9 18 -7
15 11 -2 12 -9 27 -16 35 -6 8 -7 14 -3 14 5 0 15 -9 22 -20 7 -11 17 -20 23
-20 5 0 7 5 4 10 -3 6 -1 10 5 10 6 0 8 5 5 10 -9 15 7 12 29 -5 26 -20 44
-19 42 3 -1 21 -26 41 -41 35 -7 -2 -18 3 -25 12 -10 13 -15 13 -21 3 -6 -9
-11 -10 -19 -2 -8 8 -6 13 10 17 11 3 27 -1 35 -10 8 -8 15 -10 15 -5 0 5 -11
17 -25 26 -14 9 -25 22 -25 28 0 6 8 4 18 -5 10 -10 22 -17 27 -17 5 0 1 6 -8
13 -11 8 -14 17 -8 26 8 12 13 11 30 -10 11 -13 15 -25 10 -27 -5 -2 -9 -8 -9
-14 0 -6 6 -6 15 2 10 8 12 17 5 30 -6 11 -5 21 2 28 16 16 18 15 15 -10z
m458 -5 c10 24 23 21 21 -4 -2 -32 -31 -48 -52 -27 -14 14 -14 18 -3 31 12 13
15 13 20 -2 6 -15 7 -14 14 2z m-585 -39 c0 -13 -5 -24 -11 -24 -6 0 -9 7 -6
15 4 8 2 17 -3 20 -16 10 -11 25 5 19 8 -4 15 -17 15 -30z m1185 17 c-3 -6
-14 -11 -23 -11 -15 1 -15 2 2 15 21 16 32 13 21 -4z m-532 -33 c6 -17 -11
-48 -25 -48 -6 0 -19 -7 -29 -16 -21 -19 -39 -11 -39 16 0 22 22 39 28 22 6
-20 22 -13 22 9 0 11 5 17 10 14 6 -3 10 -1 10 4 0 15 17 14 23 -1z m522 2 c3
-5 2 -10 -4 -10 -5 0 -13 5 -16 10 -3 6 -2 10 4 10 5 0 13 -4 16 -10z m-457
-21 c2 -11 -6 -19 -22 -23 -15 -4 -26 -10 -26 -15 0 -12 36 -7 54 8 9 8 16 9
16 3 0 -15 -28 -35 -40 -27 -5 3 -21 -5 -34 -19 -23 -26 -46 -34 -46 -17 0 5
-3 17 -6 25 -4 12 -2 15 9 10 10 -4 20 7 33 35 14 30 24 40 39 39 11 -2 21
-10 23 -19z m87 -18 c3 -5 1 -12 -5 -16 -5 -3 -10 1 -10 9 0 18 6 21 15 7z
m276 -32 c-12 -12 -25 -18 -28 -15 -4 3 2 13 13 21 29 22 41 18 15 -6z m-1086
-9 c16 -17 16 -20 3 -15 -9 4 -19 13 -22 21 -7 19 -2 18 19 -6z m604 -56 c-22
-27 -41 -87 -40 -123 1 -29 -1 -33 -19 -28 -17 4 -20 2 -15 -13 8 -26 -13 -35
-36 -14 -16 14 -23 15 -41 5 -13 -6 -15 -9 -5 -7 9 3 17 1 17 -4 0 -6 8 -10
18 -11 14 0 13 -3 -5 -11 -17 -8 -21 -17 -17 -34 4 -15 2 -24 -6 -24 -6 0 -9
4 -6 9 3 5 -1 12 -10 15 -10 4 -14 14 -11 26 3 11 1 23 -4 26 -15 9 -10 20 14
32 l22 11 -22 0 c-13 1 -23 7 -23 15 0 20 22 14 64 -17 l36 -28 0 35 c0 29 3
34 17 29 13 -5 15 -3 8 13 -4 10 -8 28 -10 38 -1 11 -7 22 -14 24 -9 3 -11 -2
-6 -17 9 -30 -2 -43 -26 -31 -22 12 -26 32 -5 24 8 -3 16 3 19 15 3 11 0 22
-5 23 -5 2 7 11 27 21 35 17 36 17 33 0 -2 -12 -11 -17 -23 -15 -19 3 -19 2 2
-17 33 -31 42 -26 37 21 -4 46 11 65 34 42 12 -12 12 -17 1 -30z m-279 10 c0
-18 -11 -18 -36 2 -16 13 -16 15 -1 10 9 -3 17 -1 17 5 0 6 5 7 10 4 6 -3 10
-13 10 -21z m548 13 c15 6 15 5 3 -10 -19 -24 -31 -21 -30 6 0 12 3 17 5 10 3
-7 13 -9 22 -6z m-518 -28 c0 -6 -4 -7 -10 -4 -5 3 -10 11 -10 16 0 6 5 7 10
4 6 -3 10 -11 10 -16z m50 -21 c0 -5 -4 -6 -10 -3 -5 3 -19 1 -31 -5 -15 -9
-24 -9 -32 -1 -8 8 -3 11 17 11 24 0 26 3 20 23 -7 22 -6 22 15 3 11 -11 21
-23 21 -28z m420 27 c-7 -8 -16 -13 -20 -10 -5 3 -11 1 -15 -5 -4 -6 5 -10 21
-10 20 0 25 -3 17 -11 -8 -8 -17 -8 -32 0 -12 7 -21 9 -21 5 0 -4 -3 -4 -7 -1
-10 11 24 43 47 44 18 2 19 -1 10 -12z m-164 -10 c19 -14 19 -15 -3 -21 -16
-4 -23 -14 -23 -30 0 -12 -5 -26 -10 -29 -14 -9 -2 -25 14 -19 9 4 13 -5 11
-30 -1 -29 1 -33 15 -26 9 5 22 16 30 24 10 13 10 16 -1 16 -7 0 -3 10 11 25
27 29 55 32 64 9 5 -13 1 -15 -18 -10 -15 4 -28 0 -36 -9 -12 -15 -4 -20 23
-16 4 0 7 -4 7 -10 0 -6 -6 -9 -12 -6 -7 2 -28 -9 -46 -25 -37 -32 -58 -32
-55 -1 2 13 -3 20 -13 19 -12 -1 -17 12 -20 54 -2 30 -1 50 4 44 5 -8 13 -4
25 12 15 21 16 24 2 24 -8 0 -15 5 -15 10 0 15 23 12 46 -5z m-211 -33 c-6 -7
-35 18 -35 31 0 5 9 2 20 -8 11 -10 18 -20 15 -23z m299 24 c-6 -16 -34 -30
-34 -18 0 5 5 13 12 20 16 16 29 15 22 -2z m-550 -42 c-21 -17 -17 -20 23 -18
20 1 43 -4 50 -12 13 -12 9 -13 -22 -9 -27 3 -41 -1 -55 -15 -11 -11 -24 -20
-29 -20 -5 0 -17 -7 -25 -16 -14 -13 -18 -14 -31 -1 -8 8 -11 18 -7 22 4 4 0
6 -8 3 -8 -3 -15 -13 -15 -24 0 -10 -8 -20 -18 -22 -9 -2 -17 -10 -17 -18 0
-8 -4 -14 -10 -14 -5 0 -7 7 -4 15 4 9 0 15 -9 15 -9 0 -19 5 -22 10 -4 6 5
10 20 10 17 0 24 -4 19 -12 -5 -7 -3 -8 5 -3 9 5 10 10 2 18 -17 17 -13 31 5
16 15 -12 16 -11 10 9 -5 14 -3 22 4 22 6 0 8 5 5 10 -3 6 -2 10 4 10 5 0 15
-8 20 -17 7 -11 11 -13 11 -5 0 9 7 11 22 6 21 -6 22 -5 8 11 -14 17 -13 17 9
10 16 -5 21 -4 17 4 -4 6 -3 11 2 11 6 0 12 7 16 15 4 12 0 14 -22 10 l-27 -6
24 14 c21 12 26 12 41 -2 14 -13 15 -18 4 -27z m809 35 l21 -12 -23 -9 c-23
-8 -24 -9 -5 -23 19 -14 19 -14 -1 -15 -11 -1 -14 -4 -7 -7 7 -3 20 1 29 9 14
11 16 11 11 -3 -5 -13 -2 -16 14 -11 16 4 19 2 13 -9 -6 -9 -2 -8 11 3 25 21
47 2 31 -28 -9 -17 -9 -18 6 -5 10 8 20 11 24 8 3 -4 12 -2 20 5 11 8 12 7 7
-6 -4 -10 -13 -15 -20 -12 -8 3 -14 2 -14 -3 0 -5 -9 -11 -19 -14 -13 -3 -21
2 -26 17 -6 18 -8 19 -12 3 -2 -9 -9 -15 -14 -12 -5 4 -9 2 -9 -3 0 -5 -15 -2
-34 7 -18 9 -32 19 -29 24 2 4 0 7 -6 7 -6 0 -7 7 -4 17 4 9 2 14 -3 10 -6 -3
-16 -2 -24 4 -12 7 -12 9 4 9 15 0 16 3 6 15 -11 13 -8 15 15 15 23 0 26 2 15
15 -15 18 -7 19 23 4z m-333 -29 c0 -5 7 -7 15 -4 22 9 18 -14 -4 -26 -28 -14
-31 -13 -31 15 0 14 5 25 10 25 6 0 10 -4 10 -10z m-265 -10 c-3 -5 -13 -10
-21 -10 -8 0 -12 5 -9 10 3 6 13 10 21 10 8 0 12 -4 9 -10z m380 0 c8 -13 -15
-13 -35 0 -12 8 -11 10 7 10 12 0 25 -4 28 -10z m-775 -21 c0 -6 -4 -7 -10 -4
-5 3 -10 11 -10 16 0 6 5 7 10 4 6 -3 10 -11 10 -16z m1153 6 c-3 -9 -8 -14
-10 -11 -3 3 -2 9 2 15 9 16 15 13 8 -4z m-853 -5 c0 -5 -4 -10 -9 -10 -6 0
-13 5 -16 10 -3 6 1 10 9 10 9 0 16 -4 16 -10z m145 -10 c22 -24 14 -38 -9
-15 -10 10 -24 14 -36 10 -15 -5 -18 -3 -14 9 8 22 37 20 59 -4z m415 16 c0
-3 -4 -8 -10 -11 -5 -3 -10 -1 -10 4 0 6 5 11 10 11 6 0 10 -2 10 -4z m260 -6
c0 -5 -5 -10 -11 -10 -5 0 -7 5 -4 10 3 6 8 10 11 10 2 0 4 -4 4 -10z m-1206
-26 c7 -17 0 -34 -14 -34 -11 0 -21 30 -14 41 8 14 21 11 28 -7z m49 8 c3 9 7
8 12 -5 4 -10 5 -20 2 -23 -8 -8 -47 15 -47 28 0 7 4 7 14 -1 11 -9 15 -9 19
1z m907 -4 c-21 -9 -22 -12 -7 -15 9 -3 17 -9 17 -15 0 -6 -10 -8 -25 -4 -14
4 -25 2 -25 -3 0 -6 -7 -8 -15 -4 -23 8 -13 38 13 39 12 1 25 4 29 8 3 3 13 6
22 5 10 0 6 -5 -9 -11z m104 -43 c21 -6 21 -6 -1 -15 -16 -6 -21 -15 -17 -27
5 -16 4 -16 -10 1 -12 15 -13 22 -4 27 7 5 9 11 5 15 -3 4 -13 1 -21 -5 -12
-10 -15 -8 -18 11 -2 13 4 28 12 35 12 10 17 8 24 -12 5 -13 19 -26 30 -30z
m214 42 c15 6 15 5 3 -10 -19 -24 -31 -21 -30 6 0 12 3 17 5 10 3 -7 13 -9 22
-6z m46 1 c-5 -7 -2 -9 8 -5 12 4 14 1 11 -14 -4 -13 -11 -18 -21 -14 -8 3
-22 -4 -32 -15 -11 -13 -21 -17 -25 -10 -8 13 2 30 18 30 7 0 18 9 25 20 7 11
15 20 18 20 3 0 2 -5 -2 -12z m-1004 -34 c0 -13 -3 -24 -7 -24 -11 0 -43 32
-43 44 0 6 5 5 12 -2 17 -17 33 -15 18 3 -11 13 -10 14 4 9 9 -3 16 -17 16
-30z m103 17 c9 -9 9 -14 -3 -21 -20 -13 -30 -12 -30 0 0 6 -11 8 -27 4 -28
-7 -28 -7 -8 13 22 21 49 23 68 4z m52 7 c11 10 -4 -51 -16 -62 -6 -6 -9 -6
-9 2 0 7 -7 12 -16 12 -8 0 -12 5 -9 10 3 6 16 10 28 10 20 1 20 2 5 11 -10 5
-18 15 -18 21 0 7 4 7 13 -1 8 -6 17 -7 22 -3z m390 -8 c-16 -17 -16 -20 -2
-20 9 0 19 -5 23 -12 5 -7 2 -9 -9 -5 -12 4 -15 1 -11 -11 4 -12 -1 -10 -15 7
-20 22 -30 58 -13 47 4 -2 14 -1 22 5 23 14 25 11 5 -11z m-765 -11 c0 -6 -4
-7 -10 -4 -5 3 -10 11 -10 16 0 6 5 7 10 4 6 -3 10 -11 10 -16z m-53 -7 c7 -5
9 -13 3 -21 -7 -12 -11 -12 -24 2 -9 8 -16 18 -16 21 0 8 23 7 37 -2z m243
-22 l21 -21 -30 -12 c-25 -11 -28 -15 -19 -32 6 -11 16 -23 22 -27 8 -5 7 -8
-1 -8 -7 0 -12 -3 -12 -7 3 -19 -3 -47 -8 -36 -3 9 -10 10 -24 3 -16 -9 -19
-7 -19 11 0 14 5 19 14 16 8 -3 20 1 26 9 10 12 8 14 -14 14 -14 0 -26 5 -26
10 0 6 7 10 16 10 8 0 12 5 9 11 -4 6 -14 8 -22 5 -8 -3 -11 -1 -8 4 3 6 1 10
-4 10 -6 0 -11 -7 -11 -15 0 -8 -7 -15 -15 -15 -21 0 -19 9 8 30 13 11 31 17
43 14 26 -7 43 13 20 22 -9 3 -16 10 -16 15 0 16 30 9 50 -11z m520 0 c13 -9
12 -13 -7 -29 -15 -13 -31 -17 -45 -13 -18 5 -19 7 -6 10 9 2 20 12 23 23 7
21 13 23 35 9z m422 -2 c-9 -9 -15 -9 -24 0 -9 9 -7 12 12 12 19 0 21 -3 12
-12z m-56 -13 c-11 -8 -29 -15 -40 -15 -36 0 7 25 49 29 6 0 1 -6 -9 -14z
m-1096 -35 c0 -4 -7 -11 -16 -14 -14 -5 -15 -4 -4 9 10 12 10 15 -4 15 -10 0
-14 5 -11 10 7 12 35 -5 35 -20z m1025 20 c4 -6 -1 -7 -12 -3 -15 6 -16 4 -5
-9 7 -9 21 -14 32 -11 11 3 20 0 20 -6 0 -6 -4 -12 -10 -12 -5 -1 -14 -2 -19
-3 -5 0 -13 -4 -17 -8 -4 -5 -19 -8 -32 -8 -23 0 -24 -1 -10 -17 9 -10 13 -24
11 -31 -7 -17 -23 -4 -23 19 0 10 -6 19 -12 19 -9 0 -9 3 -3 8 6 4 21 22 34
40 23 33 35 39 46 22z m115 -4 c-7 -7 -14 -6 -21 1 -9 9 -7 12 9 10 14 -1 18
-5 12 -11z m43 -3 c-7 -3 -9 -11 -6 -19 4 -10 0 -12 -11 -8 -9 3 -16 9 -16 13
0 14 23 30 34 24 7 -5 6 -8 -1 -10z m-625 -22 c3 -16 -1 -22 -10 -19 -7 3 -15
15 -16 27 -3 16 1 22 10 19 7 -3 15 -15 16 -27z m-206 -3 c12 -18 12 -29 3
-51 -6 -15 -14 -25 -18 -21 -3 3 -14 -1 -23 -10 -10 -11 -29 -16 -48 -14 -28
3 -31 0 -28 -21 2 -13 -1 -21 -6 -17 -6 3 -13 0 -16 -6 -4 -7 -4 -3 -2 8 3 18
0 20 -18 16 -19 -5 -19 -4 -7 11 7 9 21 17 30 17 14 0 14 2 1 10 -11 7 -11 10
-2 10 7 0 10 4 7 10 -3 5 6 12 20 16 13 3 22 10 19 15 -3 5 10 6 28 4 18 -3
27 -3 21 1 -19 9 -16 27 3 20 12 -4 15 -2 10 9 -8 23 10 18 26 -7z m38 0 c0
-13 -23 -5 -28 10 -2 7 2 10 12 6 9 -3 16 -11 16 -16z m360 12 c0 -5 -4 -10
-10 -10 -5 0 -10 5 -10 10 0 6 5 10 10 10 6 0 10 -4 10 -10z m40 -5 c-7 -8
-18 -15 -24 -15 -6 0 -2 7 8 15 25 19 32 19 16 0z m37 1 c-4 -10 1 -12 16 -9
22 4 22 4 3 -11 -11 -9 -24 -16 -29 -16 -4 0 -6 -4 -3 -9 8 -13 23 -9 83 22
61 31 64 32 57 12 -4 -8 -17 -15 -29 -15 -31 0 -41 -17 -15 -25 11 -4 18 -11
15 -16 -4 -5 0 -9 7 -10 10 0 10 -2 1 -6 -7 -2 -20 3 -29 11 -15 15 -54 22
-54 10 0 -7 27 -34 34 -34 3 0 3 8 0 18 -5 14 -3 14 11 -3 15 -19 15 -20 -4
-23 -11 -2 -30 2 -43 9 -13 7 -29 12 -36 11 -15 -4 -14 65 1 86 13 16 20 15
14 -2z m-867 -5 c0 -6 -4 -13 -10 -16 -5 -3 -10 1 -10 9 0 9 5 16 10 16 6 0
10 -4 10 -9z m289 -17 c2 -2 -8 -4 -22 -4 -18 0 -27 5 -27 15 0 13 4 14 23 4
12 -6 24 -13 26 -15z m31 16 c0 -5 -2 -10 -4 -10 -3 0 -8 5 -11 10 -3 6 -1 10
4 10 6 0 11 -4 11 -10z m227 4 c-3 -3 -12 -4 -19 -1 -8 3 -5 6 6 6 11 1 17 -2
13 -5z m110 -26 c-3 -7 -5 -2 -5 12 0 14 2 19 5 13 2 -7 2 -19 0 -25z m43 7
c-13 -14 -25 -23 -27 -21 -8 8 22 46 36 46 10 0 7 -8 -9 -25z m235 15 c-3 -5
-11 -10 -16 -10 -6 0 -7 5 -4 10 3 6 11 10 16 10 6 0 7 -4 4 -10z m320 0 c3
-5 -1 -10 -9 -10 -9 0 -16 5 -16 10 0 6 4 10 9 10 6 0 13 -4 16 -10z m-1163
-28 c-7 -2 -10 -8 -6 -13 3 -5 0 -9 -5 -9 -13 0 -13 3 -5 24 3 9 11 13 17 9 8
-5 7 -8 -1 -11z m1068 -14 c0 -19 -16 -5 -17 14 -2 18 0 20 7 8 5 -8 10 -18
10 -22z m-406 -5 c-12 -25 -12 -28 1 -31 8 -2 15 -8 15 -13 0 -12 -7 -11 -31
1 -15 9 -19 7 -19 -7 0 -15 -2 -16 -10 -3 -17 26 -11 49 18 64 39 21 43 20 26
-11z m356 15 c-18 -8 -21 -12 -10 -16 22 -8 43 -32 35 -40 -3 -4 -12 0 -18 8
-7 9 -23 20 -37 27 l-25 11 25 10 c14 6 32 11 40 11 8 0 4 -5 -10 -11z m-940
-8 c0 -5 -4 -10 -10 -10 -5 0 -19 -9 -31 -21 -11 -11 -23 -19 -25 -16 -9 8 8
37 22 37 8 0 14 5 14 10 0 6 7 10 15 10 8 0 15 -4 15 -10z m409 -37 c-16 -18
-28 -16 -24 5 2 9 4 24 5 32 0 12 4 11 15 -4 11 -14 12 -23 4 -33z m71 14 c0
-18 -2 -19 -10 -7 -13 20 -13 43 0 35 6 -3 10 -16 10 -28z m-153 2 l28 -11
-25 -13 c-30 -17 -40 -18 -40 -6 0 5 8 11 18 14 14 3 13 6 -8 15 -33 14 -10
15 27 1z m123 -4 c0 -8 -4 -15 -10 -15 -5 0 -10 7 -10 15 0 8 5 15 10 15 6 0
10 -7 10 -15z m433 -6 c3 -12 1 -19 -5 -17 -13 5 -20 38 -8 38 4 0 10 -9 13
-21z m-233 1 c0 -5 -5 -10 -11 -10 -5 0 -7 5 -4 10 3 6 8 10 11 10 2 0 4 -4 4
-10z m367 4 c-3 -3 -12 -4 -19 -1 -8 3 -5 6 6 6 11 1 17 -2 13 -5z m-1046 -37
c-8 -8 -11 -7 -11 4 0 20 13 34 18 19 3 -7 -1 -17 -7 -23z m535 -19 c-19 -27
-20 -22 -4 23 8 23 13 28 16 17 2 -10 -4 -28 -12 -40z m428 36 c9 -22 -3 -32
-14 -14 -12 19 -12 30 -1 30 5 0 12 -7 15 -16z m-1002 -21 c10 -9 18 -23 18
-31 0 -9 -3 -13 -6 -9 -3 3 -15 -3 -27 -14 -25 -23 -43 -24 -51 -4 -4 11 1 15
17 15 24 0 47 17 47 34 0 6 -5 5 -12 -2 -7 -7 -19 -12 -27 -12 -13 1 -13 3 2
14 14 11 15 15 5 19 -10 4 -10 6 1 6 8 1 23 -6 33 -16z m315 11 c-3 -3 -12 -4
-19 -1 -8 3 -5 6 6 6 11 1 17 -2 13 -5z m593 -9 c10 -12 10 -15 -3 -15 -8 0
-20 7 -27 15 -10 12 -10 15 3 15 8 0 20 -7 27 -15z m157 8 c-4 -3 -2 -12 4
-20 14 -16 5 -17 -24 -2 -18 9 -20 9 -9 -2 17 -19 16 -45 -1 -30 -8 6 -17 8
-20 4 -4 -3 -7 -1 -7 5 0 7 9 21 20 32 11 11 25 20 32 20 6 0 8 -3 5 -7z
m-727 -28 c0 -8 -4 -15 -9 -15 -20 0 -114 -107 -141 -160 -40 -81 -53 -150
-47 -246 6 -110 52 -211 129 -286 l53 -52 6 80 c7 86 32 161 96 289 23 44 48
97 57 119 15 36 15 38 -2 32 -12 -4 -10 -1 5 11 13 10 25 34 28 53 13 75 15
80 35 80 11 0 20 -5 20 -11 0 -6 -6 -9 -14 -6 -38 15 -21 -92 40 -250 114
-295 128 -381 75 -465 -33 -51 -96 -88 -152 -88 -70 1 -161 61 -175 118 -4 12
-12 22 -19 22 -20 0 -101 76 -134 127 -98 148 -98 372 -1 523 30 47 125 140
142 140 5 0 8 -7 8 -15z m105 -5 c-4 -12 -2 -26 3 -33 5 -7 10 -30 10 -52 1
-26 -2 -35 -7 -25 -12 22 -22 96 -15 114 9 23 16 19 9 -4z m105 10 c0 -5 -2
-10 -4 -10 -3 0 -8 5 -11 10 -3 6 -1 10 4 10 6 0 11 -4 11 -10z m192 -23 c56
-43 113 -119 140 -187 43 -111 31 -350 -20 -392 -17 -15 -17 -11 12 92 31 108
16 237 -40 341 -30 56 -114 144 -145 154 -11 4 -19 11 -19 16 0 18 29 8 72
-24z m144 -4 c-5 -5 -11 -2 -13 5 -3 6 -9 10 -14 6 -10 -6 -12 9 -2 20 4 3 14
0 22 -9 8 -8 11 -18 7 -22z m-386 5 c11 -12 20 -29 20 -37 0 -11 -4 -10 -16 5
-8 10 -13 13 -9 7 3 -7 2 -13 -4 -13 -6 0 -8 -8 -5 -17 5 -15 4 -15 -4 -4 -7
10 -7 21 -1 34 7 13 7 23 -2 33 -18 22 -2 16 21 -8z m38 -19 c-3 -8 -7 -3 -11
10 -4 17 -3 21 5 13 5 -5 8 -16 6 -23z m-400 4 c-2 -9 -11 -17 -21 -19 -12 -2
-17 2 -13 11 3 8 0 16 -7 19 -7 2 1 5 16 5 21 1 28 -3 25 -16z m332 13 c0 -3
-4 -8 -10 -11 -5 -3 -10 -1 -10 4 0 6 5 11 10 11 6 0 10 -2 10 -4z m150 -23
c0 -20 -3 -24 -11 -16 -7 7 -9 19 -6 27 10 24 17 19 17 -11z m316 6 c0 -21
-30 -18 -34 4 -2 10 3 15 15 14 10 0 19 -9 19 -18z m161 -4 c-3 -14 -19 -25
-29 -19 -16 10 -8 33 11 31 11 0 19 -6 18 -12z m-499 -38 c7 -45 5 -78 -8 -90
-12 -12 -9 6 8 52 3 9 1 12 -6 8 -12 -8 -20 19 -14 46 5 22 14 14 20 -16z
m-93 -90 c-8 -20 -55 -52 -55 -37 0 6 -6 8 -12 4 -7 -4 -10 -4 -6 0 3 4 10 8
15 8 21 0 43 21 43 41 0 17 -2 19 -10 7 -12 -19 -22 -8 -14 14 6 16 8 16 26
-1 11 -11 16 -26 13 -36z m71 16 c-10 -10 -19 5 -10 18 6 11 8 11 12 0 2 -7 1
-15 -2 -18z m34 -60 c0 -9 7 -25 17 -35 13 -15 14 -18 1 -18 -27 0 -48 24 -42
48 7 26 24 30 24 5z m-177 -69 c-8 -20 -23 -17 -17 4 5 14 3 14 -10 -2 -13
-17 -16 -17 -16 -4 0 18 18 28 37 21 6 -3 9 -11 6 -19z m-61 -1 c-5 -10 -9
-31 -8 -48 1 -31 -19 -65 -38 -65 -6 0 0 10 14 21 21 17 21 20 5 14 -16 -5
-18 -4 -7 6 17 18 15 30 -5 22 -12 -5 -8 4 11 30 30 40 42 48 28 20z m91 -3
c-3 -11 -9 -20 -13 -20 -5 0 -6 9 -3 20 3 11 9 20 13 20 5 0 6 -9 3 -20z m218
-26 c17 -20 -2 -17 -31 6 -24 18 -24 19 -3 14 12 -4 28 -12 34 -20z m-47 -2
c2 -4 1 -14 -5 -22 -5 -8 -9 -13 -10 -10 0 3 -2 13 -4 23 -3 17 10 24 19 9z
m-235 -41 c-20 -40 -59 -82 -59 -64 0 5 9 18 20 28 11 10 20 23 20 28 0 10 29
47 36 47 2 0 -5 -17 -17 -39z m41 9 c-6 -11 -15 -20 -20 -20 -6 0 -10 -6 -10
-13 0 -8 -9 -22 -19 -32 -20 -17 -20 -17 -1 20 15 30 45 63 58 65 1 0 -2 -9
-8 -20z m627 -286 c59 -37 76 -130 35 -195 -26 -42 -58 -59 -114 -59 -33 0
-46 6 -73 35 -44 46 -53 99 -27 157 21 48 35 63 72 72 l25 7 -26 -15 c-38 -22
-51 -60 -43 -123 8 -63 40 -117 73 -121 68 -10 108 38 97 119 -10 74 -26 108
-57 125 -16 8 -29 17 -29 20 0 8 41 -6 67 -22z m-290 -98 c1 -62 4 -122 7
-133 5 -17 2 -19 -21 -16 l-28 5 0 121 c0 70 4 125 10 129 27 20 32 5 32 -106z
m107 99 c7 -20 -20 -31 -38 -16 -7 6 -22 9 -32 5 -18 -5 -18 -5 0 10 25 20 62
21 70 1z m-224 -337 c0 -34 -2 -59 -4 -57 -9 9 -13 119 -5 119 5 0 9 -28 9
-62z m93 -2 c1 -31 -1 -56 -5 -56 -5 0 -8 28 -8 62 0 76 11 71 13 -6z m187 4
c0 -33 -4 -60 -10 -60 -5 0 -10 8 -11 18 0 10 -3 12 -6 5 -9 -25 -22 -13 -17
16 3 16 1 38 -5 50 -14 26 3 29 18 4 9 -16 10 -16 11 5 0 12 5 22 10 22 6 0
10 -27 10 -60z m-113 20 c-9 -23 -9 -35 1 -50 19 -30 14 -38 -8 -11 -24 28
-25 40 -4 69 21 30 24 28 11 -8z m140 -30 c2 -28 -2 -50 -7 -50 -6 0 -10 23
-10 50 0 65 14 65 17 0z m-237 9 c0 -6 -4 -7 -10 -4 -5 3 -10 11 -10 16 0 6 5
7 10 4 6 -3 10 -11 10 -16z m269 -15 c17 -48 6 -56 -13 -9 -18 43 -19 45 -8
45 4 0 14 -16 21 -36z m111 -5 c0 -10 -4 -21 -10 -24 -5 -3 -10 3 -10 14 0 10
-3 28 -7 38 -6 16 -5 16 10 4 9 -7 17 -22 17 -32z m-488 -26 c8 -10 6 -13 -6
-13 -18 0 -32 43 -19 62 6 9 9 6 11 -12 2 -14 9 -31 14 -37z m432 17 c6 -32 5
-33 -10 -18 -10 10 -14 23 -9 38 8 26 10 24 19 -20z m-347 -28 c-16 -8 -37 8
-37 27 0 20 1 20 23 -2 12 -12 18 -24 14 -25z m-569 -1534 c20 -20 14 -48 -14
-58 -22 -9 -24 -13 -14 -25 10 -13 9 -15 -11 -15 -22 0 -24 3 -21 45 3 30 0
45 -8 45 -6 0 -8 5 -5 10 9 14 58 13 73 -2z m113 1 c16 -8 19 -17 14 -38 -4
-19 -1 -32 10 -41 8 -7 15 -16 15 -21 0 -17 -19 -9 -45 18 -19 21 -25 24 -25
11 0 -9 6 -19 13 -21 6 -3 -4 -5 -23 -5 -19 0 -30 2 -24 4 7 3 8 20 4 49 -4
25 -5 47 -2 50 9 9 42 6 63 -6z m133 5 c23 -9 20 -23 -4 -17 -14 4 -20 0 -20
-11 0 -10 7 -16 16 -14 10 2 19 -3 21 -9 3 -8 -4 -13 -16 -13 -12 0 -21 -6
-21 -15 0 -18 21 -20 39 -2 11 10 13 9 9 -3 -3 -10 -20 -16 -54 -18 -32 -2
-44 1 -35 7 10 6 12 22 9 55 -5 43 -4 46 17 46 13 0 30 -3 39 -6z m104 -29
l18 -36 17 36 c23 49 39 40 41 -23 1 -44 -2 -52 -17 -52 -15 0 -18 6 -13 33
l6 32 -17 -32 c-20 -40 -30 -41 -43 -8 -5 14 -12 25 -16 25 -3 0 -4 -11 -2
-25 4 -20 1 -25 -16 -25 -15 0 -17 3 -8 9 8 5 13 24 12 47 -2 51 -2 54 10 54
5 0 18 -16 28 -35z m157 -20 c0 -42 -3 -55 -15 -55 -12 0 -15 13 -15 55 0 42
3 55 15 55 12 0 15 -13 15 -55z m78 16 c-5 -47 10 -70 34 -55 13 8 18 24 17
53 0 29 3 41 14 41 9 0 12 -6 8 -16 -3 -9 -6 -31 -6 -50 0 -27 -5 -37 -22 -43
-41 -15 -62 1 -68 53 -7 51 -6 53 14 53 10 0 12 -10 9 -36z m158 4 l21 -36 17
33 c26 51 39 46 43 -16 3 -51 1 -56 -18 -56 -17 0 -20 5 -17 28 l4 27 -16 -27
c-9 -16 -18 -28 -20 -28 -2 0 -11 12 -20 28 l-16 27 4 -27 c3 -22 0 -28 -13
-28 -15 0 -17 5 -9 38 4 20 6 45 3 55 -9 30 16 18 37 -18z m189 -105 c-30 -4
-184 -6 -342 -6 -235 1 -288 -1 -288 -12 0 -8 6 -12 13 -9 6 2 22 -5 35 -17
19 -17 22 -17 16 -3 -3 10 -1 17 5 17 6 0 11 -13 11 -30 0 -36 -6 -37 -31 -7
-18 21 -18 21 -19 2 0 -24 -44 -33 -66 -14 -10 9 -14 9 -14 0 0 -6 -4 -11 -10
-11 -5 0 -10 11 -10 24 0 13 -6 26 -12 28 -7 3 -2 7 10 10 16 4 22 2 22 -9 0
-12 5 -10 20 7 11 13 20 24 20 24 0 1 -112 0 -248 -2 -146 -1 -258 1 -273 7
-16 6 184 9 596 9 341 0 595 -4 565 -8z m-922 -34 c3 -3 -1 -6 -9 -6 -11 0
-11 -2 1 -10 10 -6 11 -10 3 -10 -7 0 -13 -4 -13 -10 0 -5 7 -10 15 -10 9 0
15 9 15 24 0 14 5 28 10 31 6 4 10 -7 10 -25 0 -21 4 -30 13 -27 6 2 12 14 12
27 0 23 29 37 41 19 3 -5 -3 -9 -13 -10 -11 0 -13 -3 -5 -6 7 -3 22 3 33 13
16 14 24 16 38 7 14 -9 21 -9 30 0 8 8 11 8 11 0 0 -7 -4 -14 -10 -18 -14 -9
0 -37 16 -31 8 3 14 1 14 -3 0 -5 -65 -9 -145 -9 -89 -1 -145 3 -145 9 0 6 5
7 10 4 14 -9 12 9 -2 23 -10 10 -10 14 0 21 14 9 60 6 70 -3z m416 -16 c-7
-34 0 -38 23 -14 14 13 14 17 2 26 -11 8 -11 9 2 5 9 -3 22 -1 29 3 8 5 22 4
32 -1 12 -6 18 -6 18 1 0 5 5 10 10 10 6 0 10 -14 10 -31 0 -20 4 -29 13 -26
6 2 12 12 12 23 0 22 21 33 48 26 12 -3 17 -11 14 -23 -3 -11 -1 -22 4 -25 5
-3 9 10 9 28 l0 33 19 -24 c15 -20 19 -21 24 -7 4 9 11 16 17 16 6 0 8 -4 5
-10 -3 -5 -1 -18 4 -27 9 -16 10 -14 11 10 0 19 5 27 18 28 9 1 30 2 45 3 15
2 30 -1 33 -6 3 -4 0 -8 -5 -8 -6 0 -11 -11 -11 -25 0 -14 -4 -25 -10 -25 -5
0 -10 11 -10 25 0 21 -5 25 -27 25 -22 0 -25 -2 -13 -10 10 -6 11 -10 3 -10
-7 0 -13 -5 -13 -11 0 -6 7 -9 15 -5 8 3 15 1 15 -4 0 -6 -16 -10 -35 -10 -21
0 -35 5 -35 13 0 9 -3 8 -9 -2 -7 -11 -11 -10 -20 5 -10 18 -10 18 -11 1 0
-27 -33 -17 -41 13 -7 24 -7 24 -9 -5 l-2 -30 -8 30 c-6 25 -8 26 -9 7 -1 -27
-27 -39 -52 -24 -11 7 -20 8 -24 2 -9 -14 -45 -12 -45 3 0 9 -2 9 -9 -1 -12
-19 -55 -11 -59 11 -3 15 13 47 24 47 2 0 1 -13 -2 -30z m-397 -546 c2 -5 -5
-10 -16 -11 -11 -1 -21 6 -24 17 -4 15 -1 17 16 11 12 -4 22 -12 24 -17z m74
12 c5 3 9 -2 9 -10 0 -10 -6 -13 -15 -10 -8 4 -15 14 -14 23 0 10 2 11 6 3 2
-6 9 -10 14 -6z m899 -8 c0 17 17 15 23 -2 4 -10 -1 -14 -16 -14 -25 2 -47 16
-47 31 0 5 9 2 20 -8 11 -10 20 -13 20 -7z m-1260 -3 c0 -8 -2 -15 -4 -15 -2
0 -6 7 -10 15 -3 8 -1 15 4 15 6 0 10 -7 10 -15z m40 2 c0 -8 -6 -14 -14 -14
-8 0 -12 6 -9 14 3 7 9 13 14 13 5 0 9 -6 9 -13z m30 -2 c0 -8 -2 -15 -4 -15
-2 0 -6 7 -10 15 -3 8 -1 15 4 15 6 0 10 -7 10 -15z m33 3 c4 -9 8 -9 14 -3
12 15 31 16 36 1 4 -10 -5 -14 -34 -14 -27 -1 -39 3 -39 14 0 17 16 19 23 2z
m87 -3 c0 -8 -4 -15 -10 -15 -5 0 -10 7 -10 15 0 8 5 15 10 15 6 0 10 -7 10
-15z m48 -2 c6 -19 -25 -16 -32 3 -4 11 -1 14 11 12 9 -2 18 -9 21 -15z m79
-5 c-3 -8 -6 -5 -6 6 -1 11 2 17 5 13 3 -3 4 -12 1 -19z m83 7 c0 -8 -4 -15
-8 -15 -5 0 -9 7 -9 15 0 8 4 15 9 15 4 0 8 -7 8 -15z m30 3 c0 -10 3 -9 9 1
5 7 14 10 20 7 21 -13 11 -26 -19 -26 -20 0 -30 5 -30 15 0 8 5 15 10 15 6 0
10 -6 10 -12z m65 3 c3 -5 1 -12 -5 -16 -5 -3 -10 1 -10 9 0 18 6 21 15 7z
m305 -6 c0 -8 -4 -15 -10 -15 -5 0 -10 7 -10 15 0 8 5 15 10 15 6 0 10 -7 10
-15z m27 -7 c-3 -8 -6 -5 -6 6 -1 11 2 17 5 13 3 -3 4 -12 1 -19z m66 6 c-7
-18 -14 -18 -39 0 -18 14 -17 15 13 14 22 -1 30 -5 26 -14z m24 -6 c-3 -8 -6
-5 -6 6 -1 11 2 17 5 13 3 -3 4 -12 1 -19z m43 1 c0 -5 -4 -9 -10 -9 -5 0 -10
7 -10 16 0 8 5 12 10 9 6 -3 10 -10 10 -16z m20 6 c0 -8 -2 -15 -4 -15 -2 0
-6 7 -10 15 -3 8 -1 15 4 15 6 0 10 -7 10 -15z m30 -6 c0 -6 -4 -7 -10 -4 -5
3 -10 11 -10 16 0 6 5 7 10 4 6 -3 10 -11 10 -16z m37 6 c0 -8 -4 -15 -9 -15
-4 0 -8 7 -8 15 0 8 4 15 8 15 5 0 9 -7 9 -15z m20 -7 c-3 -8 -6 -5 -6 6 -1
11 2 17 5 13 3 -3 4 -12 1 -19z m55 7 c5 -6 8 -5 8 3 0 17 47 15 53 -3 5 -11
-3 -14 -40 -12 -27 1 -48 7 -51 15 -4 14 19 12 30 -3z m92 -1 c4 -10 1 -14 -6
-12 -15 5 -23 28 -10 28 5 0 13 -7 16 -16z m-1144 -52 c0 -12 -3 -12 -15 -2
-8 7 -15 13 -15 15 0 1 7 2 15 2 8 0 15 -7 15 -15z m24 3 c-4 -8 -8 -15 -10
-15 -2 0 -4 7 -4 15 0 8 4 15 10 15 5 0 7 -7 4 -15z m23 -7 c-3 -8 -6 -5 -6 6
-1 11 2 17 5 13 3 -3 4 -12 1 -19z m20 0 c-3 -8 -6 -5 -6 6 -1 11 2 17 5 13 3
-3 4 -12 1 -19z m47 7 c3 -8 1 -15 -3 -15 -5 0 -11 7 -15 15 -3 8 -1 15 3 15
5 0 11 -7 15 -15z m23 -7 c-3 -8 -6 -5 -6 6 -1 11 2 17 5 13 3 -3 4 -12 1 -19z
m43 7 c0 -8 -4 -15 -10 -15 -5 0 -10 7 -10 15 0 8 5 15 10 15 6 0 10 -7 10
-15z m50 -2 c0 -18 -27 -16 -33 1 -4 10 0 14 14 13 10 -1 19 -7 19 -14z m37
-5 c-3 -8 -6 -5 -6 6 -1 11 2 17 5 13 3 -3 4 -12 1 -19z m43 1 c0 -14 -17 -10
-23 5 -4 10 -1 13 9 9 7 -3 14 -9 14 -14z m60 -1 c0 -7 -5 -6 -13 1 -8 6 -18
7 -22 3 -5 -4 -5 -2 -1 5 8 14 36 6 36 -9z m477 0 c-3 -8 -6 -5 -6 6 -1 11 2
17 5 13 3 -3 4 -12 1 -19z m43 1 c0 -6 -4 -7 -10 -4 -5 3 -10 11 -10 16 0 6 5
7 10 4 6 -3 10 -11 10 -16z m30 0 c0 -5 -4 -9 -10 -9 -5 0 -10 7 -10 16 0 8 5
12 10 9 6 -3 10 -10 10 -16z m17 -1 c-3 -8 -6 -5 -6 6 -1 11 2 17 5 13 3 -3 4
-12 1 -19z m37 7 c3 -8 1 -15 -4 -15 -6 0 -10 7 -10 15 0 8 2 15 4 15 2 0 6
-7 10 -15z m33 -7 c-3 -8 -6 -5 -6 6 -1 11 2 17 5 13 3 -3 4 -12 1 -19z m20 0
c-3 -8 -6 -5 -6 6 -1 11 2 17 5 13 3 -3 4 -12 1 -19z m43 10 c0 7 5 10 11 6 7
-4 7 -10 1 -16 -12 -12 -32 -2 -32 15 0 7 4 6 10 -3 7 -11 10 -11 10 -2z m48
-13 c-3 -3 -9 2 -12 12 -6 14 -5 15 5 6 7 -7 10 -15 7 -18z m62 4 c0 -6 -4 -7
-10 -4 -5 3 -10 11 -10 16 0 6 5 7 10 4 6 -3 10 -11 10 -16z m-1255 1 c3 -5 1
-10 -4 -10 -6 0 -11 5 -11 10 0 6 2 10 4 10 3 0 8 -4 11 -10z m35 0 c0 -5 -2
-10 -4 -10 -3 0 -8 5 -11 10 -3 6 -1 10 4 10 6 0 11 -4 11 -10z"/>
<path d="M4418 7336 c-3 -14 -1 -26 4 -26 14 0 22 30 11 41 -7 7 -12 2 -15
-15z"/>
<path d="M4553 7344 c-8 -21 13 -42 28 -27 13 13 5 43 -11 43 -6 0 -13 -7 -17
-16z"/>
<path d="M4110 7234 c0 -8 5 -12 10 -9 6 4 8 11 5 16 -9 14 -15 11 -15 -7z"/>
<path d="M4780 7235 c0 -8 5 -15 10 -15 6 0 10 7 10 15 0 8 -4 15 -10 15 -5 0
-10 -7 -10 -15z"/>
<path d="M4780 7201 c0 -5 5 -13 10 -16 6 -3 10 -2 10 4 0 5 -4 13 -10 16 -5
3 -10 2 -10 -4z"/>
<path d="M4230 4460 c0 -5 5 -10 11 -10 5 0 7 5 4 10 -3 6 -8 10 -11 10 -2 0
-4 -4 -4 -10z"/>
<path d="M4530 4271 c0 -5 7 -11 14 -14 10 -4 13 -1 9 9 -6 15 -23 19 -23 5z"/>
<path d="M4067 4376 c-3 -8 1 -17 9 -20 8 -3 14 1 14 9 0 20 -17 28 -23 11z"/>
<path d="M4316 4264 c-5 -12 -2 -15 10 -10 8 3 18 6 20 6 3 0 2 5 -1 10 -9 15
-22 12 -29 -6z"/>
<path d="M4152 4210 c15 -24 24 -25 32 -4 9 24 7 31 -5 14 -8 -11 -12 -12 -16
-2 -2 6 -9 12 -14 12 -5 0 -4 -9 3 -20z"/>
<path d="M4197 4196 c-4 -10 -5 -21 -2 -24 9 -9 17 6 13 25 -3 17 -4 17 -11
-1z"/>
<path d="M4805 4400 c-3 -5 -1 -10 4 -10 6 0 11 5 11 10 0 6 -2 10 -4 10 -3 0
-8 -4 -11 -10z"/>
<path d="M4940 4241 c0 -5 -3 -18 -6 -28 -6 -15 -4 -16 6 -6 16 15 22 43 9 43
-5 0 -9 -4 -9 -9z"/>
<path d="M4710 4219 c0 -5 -4 -7 -10 -4 -11 7 -14 -8 -3 -18 7 -8 33 11 33 24
0 5 -4 9 -10 9 -5 0 -10 -5 -10 -11z"/>
<path d="M4856 4204 c-4 -9 -4 -19 -1 -22 2 -3 7 3 11 12 4 9 4 19 1 22 -2 3
-7 -3 -11 -12z"/>
<path d="M4706 4174 c-23 -23 -20 -30 4 -9 11 10 20 20 20 22 0 7 -9 2 -24
-13z"/>
<path d="M4800 4169 c0 -11 5 -17 10 -14 6 3 10 13 10 21 0 8 -4 14 -10 14 -5
0 -10 -9 -10 -21z"/>
<path d="M4565 4110 c-3 -5 -1 -10 4 -10 6 0 11 5 11 10 0 6 -2 10 -4 10 -3 0
-8 -4 -11 -10z"/>
<path d="M4930 4106 c0 -3 9 -10 20 -16 11 -6 20 -8 20 -6 0 3 -9 10 -20 16
-11 6 -20 8 -20 6z"/>
<path d="M4790 4080 c-34 -29 -20 -34 15 -5 17 13 25 24 19 25 -6 0 -21 -9
-34 -20z"/>
<path d="M4910 4075 c0 -8 2 -15 4 -15 2 0 6 7 10 15 3 8 1 15 -4 15 -6 0 -10
-7 -10 -15z"/>
<path d="M3970 4210 c0 -5 5 -10 11 -10 5 0 7 5 4 10 -3 6 -8 10 -11 10 -2 0
-4 -4 -4 -10z"/>
<path d="M4060 4210 c0 -5 5 -10 11 -10 5 0 7 5 4 10 -3 6 -8 10 -11 10 -2 0
-4 -4 -4 -10z"/>
<path d="M4056 4182 c-2 -4 -1 -14 5 -22 7 -12 9 -10 9 8 0 23 -5 28 -14 14z"/>
<path d="M3930 4140 c0 -5 10 -15 23 -21 22 -12 22 -12 3 10 -21 23 -26 26
-26 11z"/>
<path d="M3998 4123 c7 -3 16 -2 19 1 4 3 -2 6 -13 5 -11 0 -14 -3 -6 -6z"/>
<path d="M3980 4100 c0 -5 5 -10 10 -10 6 0 10 5 10 10 0 6 -4 10 -10 10 -5 0
-10 -4 -10 -10z"/>
<path d="M4790 3959 c0 -5 5 -7 10 -4 6 3 10 8 10 11 0 2 -4 4 -10 4 -5 0 -10
-5 -10 -11z"/>
<path d="M4560 3899 c0 -5 5 -7 10 -4 6 3 10 8 10 11 0 2 -4 4 -10 4 -5 0 -10
-5 -10 -11z"/>
<path d="M4840 3850 c0 -5 7 -7 15 -4 8 4 15 8 15 10 0 2 -7 4 -15 4 -8 0 -15
-4 -15 -10z"/>
<path d="M4185 3819 c-11 -17 1 -21 15 -4 8 9 8 15 2 15 -6 0 -14 -5 -17 -11z"/>
<path d="M4140 3795 c-20 -24 -6 -28 15 -5 10 11 13 20 8 20 -6 0 -16 -7 -23
-15z"/>
<path d="M4440 3350 c-38 -138 -70 -286 -70 -323 0 -51 31 -121 58 -136 32
-17 77 -13 105 10 36 27 49 81 38 149 -9 55 -62 214 -99 300 l-19 45 -13 -45z"/>
<path d="M4024 1153 c2 -10 7 -17 12 -15 13 3 11 25 -3 29 -6 2 -10 -4 -9 -14z"/>
<path d="M4140 1155 c0 -8 5 -15 10 -15 6 0 10 7 10 15 0 8 -4 15 -10 15 -5 0
-10 -7 -10 -15z"/>
<path d="M4334 1006 c-6 -17 2 -36 17 -36 12 0 12 37 -1 45 -6 3 -13 -1 -16
-9z"/>
<path d="M4191 1007 c-5 -7 -6 -18 -2 -25 9 -15 41 -5 41 13 0 18 -27 26 -39
12z"/>
<path d="M4015 1000 c3 -5 8 -10 11 -10 2 0 4 5 4 10 0 6 -5 10 -11 10 -5 0
-7 -4 -4 -10z"/>
<path d="M4140 980 c0 -5 4 -10 9 -10 6 0 13 5 16 10 3 6 -1 10 -9 10 -9 0
-16 -4 -16 -10z"/>
<path d="M4544 1006 c-6 -17 2 -36 17 -36 12 0 12 37 -1 45 -6 3 -13 -1 -16
-9z"/>
<path d="M2245 7340 c-106 -9 -139 -17 -169 -41 l-25 -20 0 -524 c-1 -288 -2
-530 -3 -537 -2 -6 9 -18 25 -25 25 -13 27 -18 27 -78 0 -58 -3 -67 -35 -105
l-35 -42 0 -116 c0 -91 -4 -126 -19 -157 -24 -53 -80 -102 -133 -115 -84 -21
-128 -42 -148 -70 -20 -28 -20 -34 -18 -2542 l3 -2513 24 -52 c20 -44 22 -57
12 -85 -9 -28 -9 -30 3 -16 7 10 15 16 18 13 8 -8 151 -36 262 -50 127 -17
567 -20 691 -5 131 15 198 22 228 23 15 0 27 3 27 7 0 3 20 6 45 5 24 -1 42 2
39 6 -7 12 10 11 22 -1 7 -7 9 2 6 25 -3 22 0 35 8 35 12 0 74 43 103 72 10
10 23 18 30 19 7 0 -10 6 -38 13 -38 10 -52 10 -60 1 -7 -8 -9 818 -7 2480 2
1982 0 2501 -10 2531 -16 47 -49 71 -123 90 -79 20 -128 54 -161 109 -24 42
-27 58 -32 180 -5 131 -5 134 -33 161 -26 25 -29 34 -29 96 0 64 1 68 25 74
l25 6 -1 539 c0 528 -1 540 -20 558 -51 47 -296 71 -524 51z m18 -1097 c-7 -2
-21 -2 -30 0 -10 3 -4 5 12 5 17 0 24 -2 18 -5z m-205 -1010 c-6 -7 -12 -13
-13 -13 -2 0 -5 6 -8 13 -3 7 3 13 14 13 13 0 15 -3 7 -13z m17 -13 c-8 -13
-7 -13 168 -11 94 1 147 -2 147 -9 0 -5 -8 -11 -17 -11 -16 -1 -16 -2 -1 -6
18 -5 31 -30 22 -44 -3 -5 -18 -9 -34 -9 -27 0 -28 2 -23 34 5 32 4 34 -17 29
-18 -5 -21 -11 -16 -34 4 -23 2 -29 -13 -29 -14 0 -17 6 -13 30 3 23 0 30 -12
30 -11 0 -16 -9 -16 -29 0 -29 0 -29 -66 -33 -45 -2 -73 1 -86 11 -19 13 -19
12 -9 -7 16 -29 14 -36 -5 -18 -8 9 -21 13 -27 9 -6 -4 -8 0 -4 10 3 10 2 17
-3 17 -6 0 -10 -7 -10 -15 0 -8 -7 -15 -15 -15 -18 0 -19 2 -1 45 17 40 33 45
45 13 7 -20 8 -20 15 -3 4 12 1 22 -9 27 -13 8 -13 28 1 28 3 0 2 -4 -1 -10z
m419 -26 c9 -8 16 -19 16 -24 0 -18 -32 -40 -58 -40 -25 0 -27 3 -27 40 0 37
2 40 27 40 14 0 34 -7 42 -16z m74 -11 c2 -14 -3 -23 -15 -26 -14 -4 -13 -5 5
-6 32 -1 17 -21 -16 -21 -25 0 -27 3 -27 40 0 38 2 41 25 38 17 -2 26 -10 28
-25z m102 7 c24 -24 17 -48 -16 -56 -45 -11 -75 43 -36 65 24 15 29 14 52 -9z
m48 -12 c-1 -13 1 -24 5 -25 19 -7 27 -1 27 22 0 20 5 25 24 25 17 0 27 -7 32
-22 l7 -23 10 25 c5 14 11 20 13 14 6 -15 -13 -64 -25 -64 -5 0 -14 14 -20 30
-5 17 -13 30 -17 30 -3 0 -4 -13 -2 -30 4 -29 3 -30 -37 -30 -41 0 -41 1 -41
35 1 22 6 35 14 35 8 0 12 -9 10 -22z m178 -26 c4 -21 3 -32 -5 -32 -6 0 -11
7 -11 15 0 21 -18 19 -22 -2 -2 -10 -6 -13 -9 -8 -4 6 0 25 8 44 16 38 29 33
39 -17z m-771 -115 c0 -20 6 -41 13 -48 6 -7 12 -17 12 -21 0 -15 -21 -8 -45
17 -17 16 -25 20 -25 10 0 -8 4 -15 9 -15 5 0 11 -6 14 -12 3 -10 -10 -12 -52
-10 l-56 4 3 51 c4 60 -8 55 -27 -10 -6 -24 -16 -43 -20 -43 -5 0 -16 19 -24
43 -8 23 -18 49 -21 57 -5 11 0 16 14 17 16 1 20 -4 20 -27 0 -35 19 -51 21
-18 1 13 1 28 0 35 -1 8 19 13 61 15 89 4 103 -2 103 -45z m103 47 c12 -4 22
-13 22 -20 0 -11 -4 -12 -19 -3 -27 18 -51 4 -51 -29 0 -27 15 -52 32 -52 4 0
8 7 8 15 0 8 -5 15 -12 15 -23 0 4 15 28 15 20 1 23 -3 18 -20 -8 -25 -14 -31
-41 -39 -17 -5 -29 -1 -48 18 -32 32 -32 59 1 85 30 23 30 23 62 15z m120 -29
c8 -88 12 -80 -43 -82 -27 -1 -44 0 -37 3 14 7 17 94 2 94 -5 0 -10 3 -10 8 0
4 19 7 43 7 39 0 42 -2 45 -30z m89 -9 l26 -31 -5 35 c-5 29 -3 36 11 36 15 0
17 -8 13 -56 -3 -30 -7 -57 -9 -60 -3 -3 -22 14 -44 37 l-39 42 0 -27 c0 -16
5 -33 12 -40 9 -9 7 -12 -12 -12 -24 0 -25 3 -25 58 0 55 1 58 23 54 12 -2 34
-18 49 -36z m183 16 c0 -12 -3 -13 -12 -4 -16 16 -28 15 -28 -3 0 -8 7 -15 15
-15 8 0 15 -7 15 -15 0 -9 -6 -12 -15 -9 -10 4 -15 0 -15 -11 0 -13 6 -16 26
-11 17 5 23 3 19 -4 -13 -22 14 -9 28 14 15 22 15 26 -4 50 l-20 26 25 0 c18
0 26 -5 26 -17 1 -17 1 -17 14 0 7 9 21 17 30 17 15 0 14 -3 -3 -21 -21 -23
-18 -41 15 -73 14 -15 13 -16 -10 -16 -16 0 -27 7 -31 21 -5 16 -10 18 -21 8
-7 -6 -11 -15 -8 -20 3 -5 -27 -9 -67 -9 -57 0 -70 3 -61 12 15 15 16 88 1 88
-5 0 -8 4 -5 8 2 4 23 6 45 4 29 -3 41 -9 41 -20z m220 3 c0 -9 -6 -12 -16 -8
-15 5 -16 0 -12 -44 4 -47 3 -50 -17 -50 -20 0 -21 3 -17 49 5 48 4 50 -17 43
-16 -5 -20 -3 -15 9 8 22 94 23 94 1z m64 -1 c11 -11 13 -21 7 -32 -6 -11 -5
-26 4 -42 l13 -24 11 39 c6 22 11 46 11 53 0 22 23 8 30 -19 20 -76 21 -79 5
-79 -8 0 -14 3 -14 8 3 18 -2 32 -11 32 -5 0 -10 -9 -10 -20 0 -30 -34 -25
-59 8 -13 18 -20 22 -21 12 0 -9 5 -21 12 -28 9 -9 7 -12 -12 -12 -24 0 -25 2
-22 60 3 50 7 60 22 60 10 0 26 -7 34 -16z m152 -147 c4 -4 5 -8 3 -10 -2 -2
-140 1 -306 6 -189 6 -419 6 -620 0 -301 -9 -405 -6 -283 8 75 9 1197 5 1206
-4z m-939 -69 c-9 -32 13 -31 24 1 14 40 22 39 37 -2 15 -43 15 -47 -4 -47 -8
0 -13 4 -9 9 3 5 1 12 -5 16 -5 3 -10 -1 -10 -9 0 -22 -36 -20 -50 2 -10 15
-10 14 -5 -5 3 -12 1 -25 -6 -29 -8 -4 -9 -3 -5 4 4 7 2 12 -4 12 -7 0 -9 11
-7 28 3 21 1 29 -10 29 -11 0 -14 -8 -10 -33 4 -26 2 -32 -9 -27 -8 3 -14 18
-14 33 0 23 -4 28 -20 25 -11 -2 -20 0 -20 5 0 11 65 24 79 16 5 -4 13 -2 16
4 10 17 37 -10 32 -32z m128 10 l8 -23 4 23 c2 12 9 22 14 22 12 0 11 -12 -5
-51 l-14 -33 -16 32 c-9 17 -16 36 -16 42 0 19 18 10 25 -12z m65 -18 c0 -22
-4 -40 -10 -40 -5 0 -10 18 -10 40 0 22 5 40 10 40 6 0 10 -18 10 -40z m55 13
c0 -12 4 -25 8 -29 18 -18 5 -25 -15 -8 -19 17 -21 17 -15 2 4 -12 1 -18 -8
-18 -11 0 -15 12 -15 41 0 36 2 40 23 37 15 -2 22 -10 22 -25z m85 16 c0 -6
-9 -8 -20 -4 -27 9 -38 -21 -16 -43 15 -15 16 -15 16 1 0 9 5 17 10 17 16 0
12 -27 -5 -34 -35 -13 -63 21 -45 55 11 20 60 27 60 8z m30 -31 c0 -23 -3 -38
-7 -35 -9 10 -11 77 -1 77 4 0 8 -19 8 -42z m70 21 c0 12 4 20 8 17 11 -6 3
-66 -9 -66 -4 0 -14 10 -21 23 -12 22 -12 22 -19 -8 -6 -27 -7 -25 -8 14 l-1
44 25 -23 25 -23 0 22z m108 9 c28 -28 1 -75 -38 -63 -14 4 -20 15 -20 35 0
37 33 53 58 28z m42 -29 c0 -18 4 -28 10 -24 6 3 10 1 10 -4 0 -6 -9 -11 -20
-11 -17 0 -20 7 -20 41 0 24 4 38 10 34 6 -3 10 -20 10 -36z m-707 0 c17 -31
15 -58 -3 -29 -8 12 -10 12 -15 -1 -5 -13 -20 -16 -55 -10 -3 1 -5 17 -6 36 0
33 2 35 30 35 24 0 35 -7 49 -31z m757 -4 c0 -19 -4 -35 -10 -35 -5 0 -10 16
-10 35 0 19 5 35 10 35 6 0 10 -16 10 -35z m31 13 c0 -23 0 -23 10 1 5 13 12
21 16 18 3 -4 0 -20 -7 -38 l-13 -31 -13 24 c-16 28 -18 48 -4 48 6 0 10 -10
11 -22z m66 15 c-14 -4 -16 -8 -6 -19 8 -10 8 -14 0 -14 -18 0 -13 -18 7 -23
13 -4 11 -5 -5 -6 -20 -1 -23 4 -23 34 0 30 3 35 23 34 17 -1 18 -2 4 -6z m88
-12 c8 -26 -4 -51 -25 -51 -23 0 -36 36 -20 55 17 21 37 19 45 -4z m25 -3 c0
-18 -2 -20 -9 -8 -6 8 -7 18 -5 22 9 14 14 9 14 -14z m23 -20 c3 -21 2 -38 -4
-38 -5 0 -9 19 -9 42 0 49 5 47 13 -4z m-23 -18 c0 -5 -4 -10 -10 -10 -5 0
-10 5 -10 10 0 6 5 10 10 10 6 0 10 -4 10 -10z m-417 -311 c-7 -24 -33 -25
-33 -1 0 23 8 32 25 26 7 -3 11 -14 8 -25z m-370 -11 c3 -7 6 -2 7 12 2 25 2
25 15 -4 10 -25 10 -32 0 -43 -8 -7 -18 -13 -23 -13 -16 0 -36 31 -38 56 -1
19 2 21 17 14 9 -6 20 -15 22 -22z m278 23 c7 12 9 11 9 -1 0 -8 -5 -22 -10
-30 -13 -21 -33 1 -23 25 4 13 8 15 11 6 4 -11 6 -11 13 0z m-216 -31 c17 -34
19 -44 5 -35 -5 3 -10 1 -10 -5 0 -7 7 -9 15 -6 8 3 22 9 30 12 10 4 15 0 15
-12 0 -15 -2 -16 -9 -5 -7 11 -10 8 -16 -10 -5 -14 -3 -25 4 -27 14 -5 15 -52
1 -52 -5 0 -10 6 -10 14 0 19 -26 40 -35 26 -3 -5 -21 -10 -38 -10 -25 0 -29
3 -17 11 11 8 12 12 3 16 -19 7 -16 36 2 29 8 -3 15 0 15 6 0 7 5 7 14 -2 13
-10 14 -5 11 34 -3 25 -3 46 0 46 2 0 11 -13 20 -30z m252 6 c-15 -23 -15 -24
5 -18 14 3 19 1 14 -6 -9 -14 -33 -16 -41 -2 -7 11 16 50 29 50 4 0 1 -11 -7
-24z m234 6 c-11 -21 -4 -62 11 -62 5 0 6 -5 2 -11 -4 -8 0 -8 15 0 17 9 21 9
19 -1 -2 -7 -7 -16 -13 -20 -6 -5 -4 -12 5 -18 12 -8 9 -10 -12 -10 -15 0 -30
5 -33 10 -3 6 -1 10 6 10 7 0 10 2 7 5 -11 11 -40 -9 -51 -34 l-11 -26 -4 24
c-2 13 2 27 9 31 6 5 9 15 6 24 -4 9 5 33 20 56 27 41 41 54 24 22z m43 -4 c4
12 12 20 17 17 14 -10 11 -41 -7 -56 -14 -11 -18 -11 -29 4 -7 10 -10 28 -7
40 6 22 6 22 12 -3 l6 -25 8 23z m-751 -6 c3 7 6 2 6 -12 0 -14 -4 -32 -9 -40
-8 -13 -11 -13 -24 0 -19 19 -10 66 9 50 9 -8 15 -7 18 2z m104 -14 c-3 -8 -6
-5 -6 6 -1 11 2 17 5 13 3 -3 4 -12 1 -19z m812 -34 c-16 -20 -21 -12 -13 21
6 23 8 25 16 11 6 -11 6 -22 -3 -32z m-831 11 c-3 -3 -9 2 -12 12 -6 14 -5 15
5 6 7 -7 10 -15 7 -18z m209 -22 c-3 -10 -5 -4 -5 12 0 17 2 24 5 18 2 -7 2
-21 0 -30z m143 8 c0 -14 2 -14 10 -1 9 13 11 13 20 0 5 -8 10 -19 10 -25 0
-5 -5 -3 -10 5 -6 9 -10 11 -10 3 0 -7 -7 -10 -15 -7 -21 8 -19 -2 5 -26 20
-20 20 -19 35 8 l16 27 -5 -27 c-4 -16 -9 -40 -12 -55 l-5 -28 14 24 14 23 6
-22 c3 -12 1 -30 -5 -40 -14 -22 -58 -21 -58 1 0 9 -9 41 -19 72 -13 38 -16
57 -8 57 8 0 8 3 -1 12 -17 17 -15 29 3 22 8 -4 15 -14 15 -23z m85 9 c-3 -5
-13 -10 -21 -10 -8 0 -14 5 -14 10 0 6 9 10 21 10 11 0 17 -4 14 -10z m102
-12 c-3 -8 -6 -5 -6 6 -1 11 2 17 5 13 3 -3 4 -12 1 -19z m20 0 c-3 -8 -6 -5
-6 6 -1 11 2 17 5 13 3 -3 4 -12 1 -19z m-600 -24 c10 4 13 2 10 -8 -3 -8 3
-25 13 -38 11 -13 19 -18 20 -12 0 24 25 21 25 -2 0 -16 -5 -22 -13 -19 -8 3
-12 0 -9 -7 2 -7 12 -12 21 -10 14 3 16 -1 11 -19 -5 -14 -4 -19 4 -15 6 4 13
-4 17 -20 5 -19 9 -22 15 -12 6 10 11 9 23 -7 9 -11 16 -16 16 -12 0 5 7 1 16
-8 14 -13 19 -14 25 -3 6 10 12 9 23 -7 21 -28 20 -35 -8 -35 -34 0 -37 -10
-17 -56 20 -44 86 -102 94 -81 3 7 9 1 15 -13 14 -35 -2 -54 -32 -38 -11 7
-29 12 -39 13 -10 1 -26 9 -35 18 -14 15 -14 17 -1 17 8 0 21 -6 28 -12 10
-11 11 -9 5 7 -4 11 -13 27 -19 35 -7 8 -20 29 -29 45 l-17 30 6 -31 c5 -27 3
-32 -12 -30 -13 1 -17 -5 -15 -23 2 -21 0 -22 -15 -10 -10 7 -34 30 -54 50
l-36 38 -12 -38 c-15 -52 -13 -63 4 -24 10 23 19 31 29 27 20 -8 21 -24 1 -24
-18 0 -21 -55 -4 -65 6 -4 8 -14 4 -24 -5 -13 -4 -13 6 -4 10 10 10 18 0 40
l-13 28 28 -25 c20 -19 26 -20 21 -7 -4 9 -2 17 3 17 15 0 12 -64 -5 -86 -13
-16 -16 -17 -25 -4 -10 13 -11 13 -9 0 3 -34 -1 -43 -14 -31 -8 6 -17 8 -21 4
-4 -4 -10 -3 -14 3 -5 8 -13 6 -24 -5 -15 -15 -12 -16 45 -16 55 0 64 -3 87
-28 31 -36 32 -51 1 -55 -16 -3 -21 0 -16 8 6 9 2 9 -13 1 -11 -6 -25 -11 -31
-11 -19 0 -12 18 10 25 11 4 18 9 16 12 -11 10 -77 21 -77 12 0 -5 6 -9 14 -9
11 0 13 -9 9 -35 -4 -26 -2 -35 8 -35 8 0 -7 -11 -34 -24 -43 -21 -46 -25 -30
-37 11 -9 14 -10 9 -1 -10 17 -2 15 54 -13 59 -30 63 -30 55 -6 -5 16 -2 18
15 14 16 -4 19 -2 14 11 -3 9 -1 16 4 16 6 0 14 -9 17 -20 3 -11 13 -20 21
-20 8 0 14 -4 14 -10 0 -5 -4 -10 -9 -10 -5 0 -12 -13 -16 -30 -4 -16 -11 -33
-17 -37 -8 -4 -9 0 -4 13 6 16 4 16 -14 -3 -24 -27 -72 -42 -78 -25 -2 7 -8
10 -12 7 -5 -3 -5 -17 1 -32 10 -27 0 -42 -28 -43 -6 0 -13 -5 -15 -12 -2 -6
-12 -12 -22 -14 -13 -2 -17 2 -13 17 3 10 1 17 -4 13 -5 -3 -9 -1 -9 5 0 5 10
13 21 16 15 5 18 9 9 15 -9 5 -9 9 -1 14 6 4 11 12 11 17 0 6 -4 7 -10 4 -5
-3 -10 -1 -10 6 0 8 -4 8 -15 -1 -13 -10 -15 -9 -15 11 0 13 5 31 10 39 8 13
10 12 10 -4 0 -20 0 -20 14 0 13 17 12 20 -15 27 -16 4 -27 12 -24 17 3 5 12
7 20 3 8 -3 15 0 15 6 0 14 -33 14 -47 0 -8 -8 -14 -5 -23 11 -12 22 -11 22
16 16 19 -4 24 -3 15 3 -17 11 -4 34 16 27 8 -3 11 -1 8 4 -3 6 1 10 10 10 10
0 13 -5 9 -12 -5 -7 -3 -8 6 -3 10 6 7 12 -11 26 l-24 19 30 0 c25 1 27 3 10
9 -22 9 -45 -4 -45 -26 0 -11 -4 -11 -20 -3 -11 6 -20 17 -20 25 0 8 -5 15
-11 15 -6 0 -9 -10 -7 -22 2 -13 -6 -33 -18 -45 -23 -25 -44 -32 -25 -9 10 12
8 17 -7 25 -11 6 -22 8 -25 4 -6 -5 -37 21 -37 31 0 3 9 6 21 6 13 0 19 -5 16
-12 -3 -9 6 -13 28 -14 25 0 30 2 21 12 -6 6 -14 10 -17 8 -9 -5 -21 27 -14
34 3 3 5 -1 5 -8 0 -7 3 -10 7 -7 3 4 13 1 21 -5 11 -10 14 -8 12 7 -1 11 -2
29 -1 40 2 20 2 20 16 1 8 -11 15 -14 15 -8 0 10 5 10 23 1 l22 -12 -20 22
-19 22 27 -6 c24 -6 26 -5 20 11 -3 11 -11 22 -15 25 -5 3 3 14 17 23 15 10
30 15 33 11 4 -3 0 -10 -8 -15 -12 -8 -10 -10 7 -10 16 0 21 4 17 15 -7 17 7
20 23 4 8 -8 13 -8 17 0 4 6 0 11 -8 11 -9 0 -16 5 -16 11 0 6 -5 7 -12 2 -7
-4 -26 -8 -43 -9 -16 -1 -33 -2 -37 -3 -5 -1 -8 -10 -8 -21 0 -24 -16 -26 -29
-3 -8 14 -12 15 -25 4 -12 -10 -16 -10 -16 -1 0 7 -9 10 -27 6 -25 -6 -28 -3
-29 19 -1 14 2 25 6 25 4 0 6 18 5 41 -2 26 1 36 6 28 7 -11 9 -9 9 6 1 19 2
19 10 -1 5 -12 14 -25 21 -30 9 -5 10 -2 6 9 -10 26 9 20 33 -10 18 -23 19
-24 10 -5 -10 21 -10 23 7 18 15 -5 18 -1 18 17 -2 32 -14 49 -31 43 -7 -3
-16 -1 -19 4 -3 5 -12 7 -19 4 -8 -3 -17 -1 -20 4 -3 5 4 12 16 15 l21 6 -25
33 c-28 37 -38 109 -12 87 11 -9 14 -7 14 10 0 12 4 20 10 16 5 -3 7 -12 3
-20 -4 -11 -1 -13 13 -8 17 6 17 5 6 -10 -10 -12 -11 -19 -2 -29 6 -7 16 -21
23 -31 12 -17 13 -16 12 9 0 15 6 29 13 32 11 3 12 0 3 -16 -12 -23 -5 -33 16
-25 12 5 14 1 8 -18 -6 -19 -5 -22 6 -12 9 9 16 10 26 2 7 -7 13 -8 13 -4 0 4
7 2 15 -5 8 -7 15 -9 15 -5 0 5 9 -2 20 -15 11 -13 23 -21 26 -18 3 3 -6 18
-20 33 -27 29 -33 45 -17 45 5 0 4 11 -2 23 -8 18 -14 21 -23 13 -9 -8 -9 -13
0 -18 8 -6 8 -8 -1 -8 -7 0 -17 9 -23 20 -6 11 -19 20 -30 20 -10 0 -22 5 -26
12 -5 8 0 9 14 6 30 -8 27 -3 -12 21 -37 23 -58 55 -28 43 9 -3 25 -15 34 -27
19 -22 24 -14 8 16 -8 15 -7 19 5 19 8 0 15 -4 15 -8 0 -5 7 -17 15 -28 14
-18 15 -17 9 11 -10 43 -12 45 -39 35 -14 -5 -25 -6 -26 -2 -8 59 7 82 28 41
13 -24 13 -24 13 7 0 37 14 55 18 24 3 -15 8 -20 19 -16z m843 -12 l1 -27 13
24 13 24 5 -27 c6 -29 9 -28 -69 -16 -2 0 -3 5 -3 11 0 6 7 9 15 5 12 -4 14 0
9 21 -5 18 -4 24 5 19 6 -4 11 -19 11 -34z m-804 -30 c-12 -12 -18 8 -10 35
l8 28 4 -28 c2 -16 1 -31 -2 -35z m251 33 c-4 -8 -11 -15 -17 -15 -7 0 -7 6 0
21 13 23 26 19 17 -6z m273 -19 c0 -6 -7 -2 -15 8 -8 11 -15 25 -15 30 0 6 7
2 15 -8 8 -11 15 -25 15 -30z m-250 -2 c-12 -32 -13 -77 -1 -70 10 7 20 -25
22 -69 l1 -30 8 33 c10 44 25 56 17 14 -4 -20 -3 -31 3 -27 5 3 7 0 4 -8 -5
-13 -64 -41 -104 -49 -8 -2 -19 -12 -24 -23 -4 -11 -10 -15 -12 -9 -3 5 7 32
21 58 14 26 23 52 20 57 -4 5 -2 9 4 9 5 0 13 -4 16 -10 9 -15 25 -12 25 5 0
8 -5 15 -11 15 -5 0 -7 5 -4 10 4 6 2 17 -5 25 -13 15 4 95 20 95 6 0 6 -10 0
-26z m224 -63 c-4 -14 -8 -29 -8 -33 -1 -3 -4 -10 -8 -14 -15 -14 -8 -25 11
-19 14 4 22 -3 35 -29 9 -19 16 -37 16 -40 0 -10 -38 -7 -65 6 -24 11 -25 15
-21 67 3 34 10 58 20 63 11 6 13 15 5 41 -13 47 -10 57 7 18 10 -21 13 -44 8
-60z m243 67 c-3 -8 -6 -5 -6 6 -1 11 2 17 5 13 3 -3 4 -12 1 -19z m-527 -40
c0 -6 8 -17 17 -23 17 -12 17 -14 -1 -34 -19 -21 -37 -28 -35 -13 4 21 -3 32
-19 32 -21 0 -59 36 -49 46 3 4 19 -4 34 -16 l28 -22 3 26 c3 25 22 28 22 4z
m372 -9 c33 26 42 27 28 1 -6 -11 -21 -22 -35 -26 -28 -7 -40 -31 -24 -50 9
-11 15 -11 35 3 27 18 30 10 10 -29 -14 -26 -5 -41 9 -18 12 20 33 11 28 -12
-4 -19 -3 -20 6 -8 6 8 8 22 5 32 -2 9 0 19 6 23 5 3 10 -2 11 -12 0 -13 4
-10 13 10 7 15 15 24 19 21 4 -4 7 3 7 16 0 13 3 20 7 17 3 -4 12 1 19 11 8
10 13 12 14 5 0 -22 30 -2 31 21 0 11 3 16 5 10 3 -6 1 -29 -4 -52 -7 -28 -6
-44 2 -52 8 -10 7 -11 -4 -8 -10 3 -14 15 -12 34 3 26 -3 33 -9 9 -1 -5 -9
-15 -18 -22 -9 -7 -11 -13 -4 -13 13 0 12 -18 -1 -39 -6 -10 -5 -12 2 -7 7 4
12 2 12 -3 0 -6 -8 -11 -17 -11 -15 0 -16 -2 -3 -10 8 -5 11 -10 5 -10 -13 0
-33 -42 -27 -58 2 -7 10 -12 17 -12 8 0 16 -4 19 -8 2 -4 -4 -8 -15 -8 -10 0
-19 4 -19 9 0 5 -7 4 -15 -3 -10 -9 -15 -9 -15 -1 0 6 5 11 10 11 6 0 10 4 10
10 0 5 -7 7 -15 4 -9 -4 -14 -16 -13 -32 2 -14 -3 -27 -11 -30 -9 -3 -11 0 -7
7 9 15 -13 43 -26 35 -6 -4 -8 1 -4 14 4 11 2 23 -4 27 -5 3 -10 15 -10 26 0
14 -7 19 -26 19 -21 0 -24 -3 -19 -21 5 -15 4 -19 -4 -15 -17 11 -13 28 15 70
21 30 22 36 7 28 -14 -8 -25 -3 -53 25 -23 23 -28 33 -16 29 16 -6 17 -4 6 9
-11 14 -10 17 9 22 12 3 20 11 17 18 -2 7 -2 16 2 20 4 4 9 -5 12 -20 l5 -27
27 21z m140 -1 c-9 -9 -12 -7 -12 12 0 19 3 21 12 12 9 -9 9 -15 0 -24z m-882
-10 c0 -5 -7 -8 -15 -8 -15 0 -20 21 -8 33 7 7 23 -11 23 -25z m510 -27 c0
-25 0 -25 -20 -6 -13 14 -18 27 -13 44 6 23 7 23 20 6 7 -11 13 -30 13 -44z
m-555 31 c-3 -7 -5 -18 -5 -24 0 -19 -25 -1 -26 20 -1 14 4 20 18 19 11 -1 16
-7 13 -15z m1091 -9 c-10 -10 -19 5 -10 18 6 11 8 11 12 0 2 -7 1 -15 -2 -18z
m47 -10 c-6 -15 -23 -18 -23 -4 0 5 3 17 6 26 5 12 9 14 14 4 5 -7 6 -18 3
-26z m-125 -3 c-1 -17 -8 -35 -17 -42 -13 -10 -14 -10 -3 2 14 17 16 34 2 25
-13 -8 -13 1 2 25 16 26 17 26 16 -10z m48 15 c-3 -8 -2 -15 3 -15 4 0 6 -11
3 -25 -2 -14 -6 -24 -8 -23 -6 7 -13 62 -8 70 9 14 16 9 10 -7z m-990 -30 c6
-14 -3 -52 -10 -44 -2 2 -6 16 -10 32 -7 29 10 39 20 12z m1031 -16 c-4 -14 1
-22 15 -28 12 -4 17 -10 12 -13 -17 -11 -43 17 -37 40 3 12 8 22 10 22 3 0 3
-9 0 -21z m-457 -35 c0 -46 -16 -36 -18 11 -1 21 3 33 8 30 6 -3 10 -22 10
-41z m-279 19 c29 -17 38 -33 20 -33 -6 0 -13 5 -16 10 -9 15 -27 12 -19 -2 4
-8 3 -10 -2 -5 -5 5 -9 12 -9 15 0 4 -4 13 -8 20 -11 17 0 15 34 -5z m669 7
c0 -5 -5 -10 -11 -10 -5 0 -7 5 -4 10 3 6 8 10 11 10 2 0 4 -4 4 -10z m100 0
c0 -5 -5 -10 -11 -10 -5 0 -7 5 -4 10 3 6 8 10 11 10 2 0 4 -4 4 -10z m-549
-59 c12 19 11 32 -1 24 -5 -3 -10 -1 -10 4 0 22 28 10 34 -15 8 -30 -8 -54
-35 -54 -22 0 -49 42 -30 48 6 2 11 11 12 20 0 10 5 4 11 -12 8 -21 13 -25 19
-15z m464 29 c3 -5 1 -10 -4 -10 -6 0 -11 5 -11 10 0 6 2 10 4 10 3 0 8 -4 11
-10z m1 -52 c-2 -31 -26 -54 -26 -24 0 13 20 56 26 56 1 0 1 -14 0 -32z m56
18 c6 4 6 -1 -1 -13 -6 -11 -7 -23 -3 -27 3 -4 -1 -4 -11 0 -12 4 -17 1 -17
-13 0 -10 -9 -24 -20 -31 -12 -7 -18 -17 -15 -22 3 -6 -5 -10 -18 -10 -14 0
-27 -7 -31 -17 -3 -10 -9 -25 -12 -33 -5 -10 1 -8 15 5 27 23 82 30 74 9 -6
-17 -9 -17 -34 -4 -13 7 -19 7 -19 0 0 -5 6 -10 13 -11 9 0 9 -2 -1 -6 -6 -2
-9 -9 -6 -15 4 -6 -1 -8 -15 -3 -15 4 -28 -1 -47 -20 -14 -14 -23 -29 -19 -33
4 -4 18 6 31 21 19 23 27 26 41 17 17 -10 17 -10 -1 -8 -10 2 -25 -7 -33 -19
-15 -22 -14 -23 7 -23 13 0 20 -3 17 -7 -4 -3 0 -15 10 -25 16 -18 15 -19 -25
-22 -11 0 -27 -7 -38 -15 -10 -7 -6 -1 10 13 34 33 24 52 -19 36 -26 -10 -27
-9 -23 15 5 25 -7 35 -15 13 -3 -10 -7 -10 -17 -1 -17 15 -3 35 20 28 15 -5
19 2 25 35 4 23 11 37 17 34 5 -3 8 -15 5 -25 -3 -11 0 -19 5 -19 10 0 9 23
-8 111 -5 28 -3 37 10 42 14 5 15 3 6 -13 -9 -16 -8 -18 5 -14 8 4 15 2 15 -4
0 -6 -5 -12 -11 -14 -6 -2 -9 -13 -6 -23 5 -19 5 -19 12 3 8 24 21 29 28 10 4
-8 8 -4 12 9 4 13 11 20 16 18 10 -7 32 32 24 44 -3 5 3 17 12 27 11 11 18 13
21 5 2 -6 8 -8 14 -5z m-1096 -43 c-6 -7 -56 27 -56 39 0 5 14 0 31 -12 16
-12 28 -24 25 -27z m1134 27 c0 -5 -5 -10 -11 -10 -5 0 -7 5 -4 10 3 6 8 10
11 10 2 0 4 -4 4 -10z m-133 -35 c3 -19 0 -23 -12 -19 -17 7 -20 20 -5 29 6 4
7 12 4 18 -4 7 -3 8 1 4 5 -4 11 -19 12 -32z m-1037 -1 c0 -8 -4 -12 -10 -9
-5 3 -10 10 -10 16 0 5 5 9 10 9 6 0 10 -7 10 -16z m476 7 c11 9 14 8 14 -5 0
-9 11 -37 24 -62 21 -39 25 -43 31 -25 4 13 -1 27 -14 40 -23 23 -25 30 -11
51 8 12 10 12 16 -3 4 -12 10 -15 18 -7 10 7 12 -3 11 -43 -2 -56 -12 -97 -23
-97 -12 1 -84 72 -78 77 3 3 12 0 21 -7 11 -9 15 -10 15 0 0 6 -13 17 -30 23
-20 8 -30 18 -30 33 0 24 13 41 18 24 3 -8 8 -8 18 1z m202 -48 c-21 -20 -38
-9 -38 25 0 21 3 24 10 12 7 -12 10 -11 16 5 7 18 8 18 17 -4 8 -16 7 -26 -5
-38z m82 37 c12 -19 2 -37 -25 -44 -12 -3 -25 -13 -29 -21 -4 -13 -2 -14 14
-5 29 16 24 4 -15 -35 -43 -43 -55 -44 -55 -2 0 18 4 27 8 20 7 -11 40 42 55
89 7 19 35 18 47 -2z m-145 -30 c-5 -16 -3 -19 11 -13 14 5 15 3 3 -18 -17
-32 -18 -71 -2 -65 19 8 16 -7 -5 -30 -19 -20 -18 -40 2 -59 8 -8 18 -3 34 17
18 21 20 28 8 28 -8 0 -18 5 -22 11 -7 12 20 8 59 -7 12 -4 14 0 10 14 -3 11
0 29 6 39 7 12 10 13 11 4 0 -11 3 -11 14 -1 8 6 13 17 10 24 -3 7 4 21 16 31
25 22 27 9 3 -18 -14 -16 -15 -19 -3 -15 8 2 25 19 38 38 12 18 22 27 22 19 0
-8 -9 -25 -20 -39 -23 -30 -26 -52 -5 -44 8 4 15 1 15 -5 0 -11 -34 -33 -47
-29 -17 5 -113 -57 -108 -70 7 -19 -13 -52 -30 -52 -9 0 -15 10 -15 24 0 13
-7 26 -15 30 -11 4 -15 -1 -15 -19 0 -35 -20 -42 -42 -15 -14 17 -16 25 -7 31
8 4 0 13 -21 24 l-33 17 39 22 c41 23 56 14 35 -21 -6 -10 -11 -12 -11 -5 0 6
-8 12 -17 12 -14 0 -12 -5 10 -26 15 -14 31 -22 36 -19 5 3 8 27 6 54 -3 37 0
51 11 55 14 5 14 8 0 22 -19 19 -20 40 -3 59 18 21 29 18 22 -5z m-165 -53 c0
-6 -9 -2 -20 8 -11 10 -20 23 -20 28 0 6 9 2 20 -8 11 -10 20 -23 20 -28z
m-385 22 c11 -17 -1 -21 -15 -4 -8 9 -8 15 -2 15 6 0 14 -5 17 -11z m1105 -19
c0 -5 -12 -16 -27 -24 -16 -8 -21 -15 -13 -16 11 0 11 -3 2 -12 -10 -10 -15
-10 -21 1 -5 8 -11 9 -15 3 -8 -13 19 -23 40 -15 8 3 13 12 10 19 -3 8 0 11 9
7 8 -3 12 -9 9 -14 -3 -5 0 -9 5 -9 9 0 9 -10 2 -49 -1 -2 -8 2 -17 10 -13 10
-17 10 -24 -1 -6 -10 -9 -8 -12 6 -4 16 -7 14 -18 -11 -11 -28 -13 -28 -20
-10 -11 27 -12 43 -1 26 6 -9 11 -10 15 -2 9 14 -2 33 -15 26 -18 -12 -7 11
22 45 18 21 27 27 23 15 -7 -17 -5 -18 8 -8 8 7 19 9 23 5 5 -4 5 1 2 11 -4
11 -3 16 3 12 6 -3 10 -10 10 -15z m-266 -52 c-6 -10 -4 -10 7 0 22 20 34 14
14 -8 -10 -11 -22 -20 -27 -20 -4 0 -8 9 -8 20 0 11 5 20 11 20 5 0 7 -6 3
-12z m-564 -30 c0 -6 -7 -5 -15 2 -8 7 -15 17 -15 22 0 6 7 5 15 -2 8 -7 15
-17 15 -22z m530 7 c-7 -9 -15 -13 -18 -10 -3 3 -14 -2 -24 -12 -10 -9 -18
-12 -18 -6 0 5 9 18 19 27 15 13 20 14 24 4 3 -9 7 -8 12 5 4 10 10 16 13 13
3 -3 -1 -12 -8 -21z m-480 -28 c0 -6 -9 -2 -20 8 -11 10 -20 23 -20 28 0 6 9
2 20 -8 11 -10 20 -23 20 -28z m42 6 c21 -19 24 -35 5 -27 -14 5 -41 44 -30
44 3 0 15 -7 25 -17z m348 -8 c-13 -14 -26 -23 -28 -20 -7 7 29 45 41 45 6 0
0 -11 -13 -25z m280 -17 c0 -5 -9 -3 -20 4 -11 7 -20 16 -20 20 0 5 9 3 20 -4
11 -7 20 -16 20 -20z m-700 12 c0 -5 -11 -10 -25 -10 -14 0 -25 5 -25 10 0 6
11 10 25 10 14 0 25 -4 25 -10z m520 0 c0 -5 -9 -10 -20 -10 -11 0 -20 5 -20
10 0 6 9 10 20 10 11 0 20 -4 20 -10z m-360 -46 c0 -28 -21 -32 -45 -8 -20 20
-11 32 10 14 13 -10 15 -9 15 9 0 12 5 19 10 16 6 -3 10 -17 10 -31z m183 10
c-5 -14 -3 -15 15 -5 14 7 22 8 22 2 0 -15 -41 -34 -51 -24 -10 10 0 55 12 48
4 -3 5 -13 2 -21z m-302 -3 c-12 -8 -9 -11 11 -16 14 -4 36 -18 49 -31 25 -27
16 -33 -12 -8 -24 21 -59 10 -52 -16 7 -26 -18 -26 -42 0 -18 20 -8 29 11 11
5 -6 13 -1 21 15 10 22 9 25 -14 30 -18 5 -21 9 -11 15 7 5 22 9 33 9 16 0 17
-2 6 -9z m434 0 c3 -5 -4 -13 -15 -16 -17 -5 -19 -10 -10 -20 7 -8 9 -19 5
-26 -6 -8 -2 -8 14 0 13 7 21 8 21 2 0 -10 -31 -31 -45 -31 -4 0 -4 11 -1 25
5 21 3 25 -18 25 -13 0 -29 -7 -36 -15 -7 -8 -17 -15 -23 -15 -19 0 34 48 61
55 20 5 23 8 11 16 -11 7 -9 9 8 9 12 0 24 -4 28 -9z m-825 -21 c0 -5 -2 -10
-4 -10 -3 0 -8 5 -11 10 -3 6 -1 10 4 10 6 0 11 -4 11 -10z m24 -5 c3 -8 1
-15 -4 -15 -6 0 -10 7 -10 15 0 8 2 15 4 15 2 0 6 -7 10 -15z m891 5 c-3 -5
-11 -10 -16 -10 -6 0 -7 5 -4 10 3 6 11 10 16 10 6 0 7 -4 4 -10z m126 -20
c-24 -21 -41 -26 -41 -12 0 5 12 13 28 19 39 15 40 15 13 -7z m-1094 -34 c-8
-25 -26 -15 -24 13 2 28 3 29 15 14 7 -9 11 -22 9 -27z m1129 27 c-6 -17 -5
-17 8 0 12 16 14 16 20 1 11 -28 7 -36 -15 -29 -14 5 -19 3 -15 -3 3 -6 3 -18
0 -27 -6 -14 -9 -14 -26 4 -10 12 -23 21 -29 21 -6 0 -7 5 -3 11 4 8 9 8 17 0
6 -6 16 -11 22 -11 5 0 3 5 -5 10 -13 8 -12 11 5 24 26 20 28 20 21 -1z
m-1096 -16 c0 -16 -3 -17 -15 -7 -8 7 -15 16 -15 20 0 3 7 7 15 7 8 0 15 -9
15 -20z m570 2 c0 7 5 9 10 6 6 -3 10 -18 10 -32 0 -21 -4 -24 -20 -20 -17 4
-20 1 -18 -16 4 -29 -22 -33 -52 -7 -14 12 -26 17 -28 11 -2 -6 -10 -11 -18
-11 -9 0 -13 -4 -9 -10 3 -5 12 -7 20 -3 8 3 15 0 15 -7 0 -7 7 -10 15 -7 8 4
17 2 20 -3 4 -6 -2 -10 -12 -11 -13 -1 -11 -3 7 -9 18 -6 20 -8 7 -9 -10 -1
-27 4 -38 9 -17 10 -18 8 -9 -15 15 -40 13 -55 -7 -48 -12 5 -13 8 -4 11 8 3
5 9 -9 19 -16 11 -20 22 -16 39 3 12 2 26 -4 29 -17 10 -11 25 10 25 21 0 28
24 10 35 -5 3 -10 11 -10 16 0 6 19 -6 42 -25 23 -20 45 -36 48 -36 4 0 4 14
2 31 -4 25 -2 30 9 24 11 -6 12 -5 2 6 -21 22 -15 34 7 14 12 -11 20 -13 20
-6z m432 -40 l-22 -20 0 26 c0 14 6 32 13 40 10 11 13 10 21 -6 7 -15 4 -24
-12 -40z m-342 40 c0 -8 4 -8 14 0 12 11 15 6 18 -31 l3 -43 43 39 c23 21 42
34 42 29 0 -5 -6 -15 -12 -22 -8 -8 -9 -15 -3 -17 38 -15 40 -23 14 -50 -19
-19 -32 -24 -48 -19 -11 3 -21 11 -21 16 0 6 9 7 20 4 17 -5 20 -2 20 20 l0
26 -26 -20 c-37 -29 -58 -27 -52 4 4 21 2 24 -12 20 -23 -7 -31 5 -23 33 6 23
23 31 23 11z m234 -1 c-6 -10 -4 -10 7 0 13 12 38 18 25 5 -3 -4 4 -13 16 -21
22 -13 22 -13 -10 -8 -20 4 -31 2 -27 -4 3 -6 -1 -10 -9 -10 -21 0 -30 18 -16
35 15 18 24 20 14 3z m336 7 c0 -1 -11 -15 -25 -31 -14 -16 -25 -24 -25 -17 0
6 5 15 10 18 6 3 10 11 10 17 0 6 -6 6 -15 -2 -13 -11 -14 -10 -10 2 5 12 55
24 55 13z m-790 -30 c10 -12 10 -15 -4 -15 -9 0 -16 7 -16 15 0 8 2 15 4 15 2
0 9 -7 16 -15z m355 -4 c-3 -6 -11 -11 -17 -11 -6 0 -6 6 2 15 14 17 26 13 15
-4z m357 1 c-18 -6 -14 -22 6 -23 12 0 10 -3 -8 -10 -13 -6 -27 -15 -31 -21
-4 -6 -13 -8 -20 -6 -9 4 -4 10 14 18 19 9 24 16 15 21 -9 6 -9 11 1 23 7 9
18 13 24 9 8 -5 7 -8 -1 -11z m-752 -22 c0 -4 -7 -13 -15 -20 -10 -9 -15 -9
-15 -1 0 6 -7 11 -15 11 -21 0 -19 18 3 22 20 5 42 -1 42 -12z m470 -2 c0 -6
-7 -8 -14 -5 -11 4 -13 1 -9 -11 5 -15 4 -15 -13 1 -16 15 -17 19 -5 26 16 10
41 4 41 -11z m171 -4 c-17 -13 -25 -14 -34 -5 -9 9 -7 10 7 5 13 -5 17 -4 12
4 -5 8 1 12 16 12 l22 0 -23 -16z m-1018 -32 c-6 -4 -11 -16 -10 -26 1 -11 -7
-22 -20 -27 -18 -6 -23 -5 -23 7 0 8 4 13 9 9 5 -3 12 -1 16 5 3 5 0 10 -7 10
-8 1 -6 6 6 15 11 8 25 15 30 15 7 0 6 -3 -1 -8z m1007 -2 c0 -5 -2 -10 -4
-10 -3 0 -8 5 -11 10 -3 6 -1 10 4 10 6 0 11 -4 11 -10z m43 -7 c-6 -2 -9 -14
-6 -26 5 -21 5 -21 -12 -5 -15 14 -15 18 -4 31 8 8 18 12 24 9 5 -3 5 -7 -2
-9z m110 -18 c-6 -17 -23 -20 -23 -5 0 6 5 10 11 10 5 0 7 5 3 12 -4 7 -3 8 4
4 6 -4 9 -13 5 -21z m-596 4 c6 -6 8 -19 6 -30 -5 -18 -7 -19 -24 -3 -10 9
-15 22 -12 30 6 17 15 18 30 3z m223 -9 c0 -5 -5 -10 -11 -10 -5 0 -7 5 -4 10
3 6 8 10 11 10 2 0 4 -4 4 -10z m45 -9 c-3 -6 -14 -11 -23 -11 -15 1 -15 2 2
15 21 16 32 13 21 -4z m32 5 c-4 -10 2 -16 16 -19 19 -3 20 -4 5 -11 -10 -5
-25 -5 -33 -2 -13 4 -14 10 -5 26 12 23 25 27 17 6z m213 -7 c0 -6 -4 -7 -10
-4 -5 3 -10 11 -10 16 0 6 5 7 10 4 6 -3 10 -11 10 -16z m-825 1 c3 -5 -1 -10
-9 -10 -8 0 -18 5 -21 10 -3 6 1 10 9 10 8 0 18 -4 21 -10z m120 0 c3 -5 -1
-10 -9 -10 -8 0 -18 5 -21 10 -3 6 1 10 9 10 8 0 18 -4 21 -10z m275 -15 c0
-8 -4 -17 -10 -20 -6 -4 -10 5 -10 20 0 15 4 24 10 20 6 -3 10 -12 10 -20z
m60 22 c0 -2 -14 -16 -31 -33 -30 -28 -31 -28 -18 -4 7 14 12 28 11 33 -1 4 7
7 18 7 11 0 20 -1 20 -3z m284 -12 c-4 -8 -16 -15 -28 -15 -20 1 -20 1 4 15
31 18 30 18 24 0z m-908 -32 l26 -16 -24 -13 c-28 -16 -38 -17 -38 -5 0 5 8
11 18 14 13 3 8 8 -18 20 -29 14 -31 16 -12 17 12 0 34 -8 48 -17z m665 -11
c-9 -18 -8 -20 12 -16 l22 5 -22 -10 c-26 -12 -31 -31 -8 -31 8 0 15 -4 15
-10 0 -14 -12 -12 -38 6 -21 15 -22 14 -23 -13 0 -27 -1 -27 -11 -6 -13 27 -3
73 16 73 7 0 19 7 26 15 17 21 24 12 11 -13z m289 24 c0 -9 -30 -14 -35 -6 -4
6 3 10 14 10 12 0 21 -2 21 -4z m46 -8 c-19 -11 -19 -11 -1 -24 14 -11 15 -14
4 -14 -8 0 -20 5 -27 12 -9 9 -7 14 6 24 9 8 22 13 27 13 6 0 1 -5 -9 -11z
m-689 -4 c-3 -3 -12 -4 -19 -1 -8 3 -5 6 6 6 11 1 17 -2 13 -5z m539 -1 c-3
-4 6 -13 21 -20 l28 -13 -30 5 c-16 3 -36 6 -42 7 -25 3 -11 28 15 28 9 0 12
-3 8 -7z m-901 -13 c3 -5 2 -10 -4 -10 -5 0 -13 5 -16 10 -3 6 -2 10 4 10 5 0
13 -4 16 -10z m507 -52 l-22 -22 2 42 1 43 21 -20 20 -21 -22 -22z m88 17 c0
-17 -2 -17 -10 -5 -5 8 -10 24 -10 35 0 17 2 17 10 5 5 -8 10 -24 10 -35z
m234 1 c-5 -14 -9 -15 -15 -4 -5 7 -9 22 -9 33 0 17 2 18 15 4 9 -9 13 -23 9
-33z m146 29 c7 -8 17 -12 24 -8 6 3 8 3 4 -2 -4 -4 -3 -14 3 -22 9 -9 8 -13
0 -13 -6 0 -11 4 -11 10 0 5 -7 7 -15 4 -10 -4 -15 0 -15 14 0 11 -6 23 -12
25 -8 4 -9 6 -2 6 6 1 17 -6 24 -14z m-94 -21 c13 4 24 2 24 -3 0 -5 3 -16 6
-25 8 -21 -24 -21 -53 -1 -15 11 -19 21 -15 37 5 20 7 20 10 5 3 -14 10 -17
28 -13z m-469 4 c40 -14 41 -21 8 -36 -32 -15 -45 -15 -45 -2 0 6 7 10 16 10
32 0 6 25 -32 31 -33 5 -34 6 -10 8 16 0 45 -4 63 -11z m148 -18 c-5 -8 -11
-8 -17 -2 -6 6 -7 16 -3 22 5 8 11 8 17 2 6 -6 7 -16 3 -22z m-575 10 c0 -5
-4 -10 -10 -10 -5 0 -10 5 -10 10 0 6 5 10 10 10 6 0 10 -4 10 -10z m70 -12
c0 -19 -18 -43 -25 -36 -4 3 -2 16 5 27 12 24 20 27 20 9z m295 2 c3 -5 -1
-10 -9 -10 -8 0 -18 5 -21 10 -3 6 1 10 9 10 8 0 18 -4 21 -10z m595 0 c0 -5
-4 -10 -9 -10 -6 0 -13 5 -16 10 -3 6 1 10 9 10 9 0 16 -4 16 -10z m103 -10
c3 -11 1 -20 -4 -20 -5 0 -9 9 -9 20 0 11 2 20 4 20 2 0 6 -9 9 -20z m-1034
-3 c-9 -7 -14 -17 -12 -24 2 -6 -5 -17 -16 -23 -14 -7 -21 -7 -21 0 0 5 5 10
11 10 6 0 9 6 7 12 -6 16 13 37 32 37 13 0 13 -1 -1 -12z m621 -27 c-7 -17
-15 -28 -18 -26 -2 3 1 19 8 36 7 17 15 28 18 26 2 -3 -1 -19 -8 -36z m327 23
c-4 -3 -2 -12 4 -20 8 -9 8 -13 1 -13 -6 0 -14 5 -17 10 -6 10 2 30 12 30 4 0
3 -3 0 -7z m-642 -13 c-3 -5 -11 -10 -16 -10 -6 0 -7 5 -4 10 3 6 11 10 16 10
6 0 7 -4 4 -10z m772 3 c-4 -3 -1 -13 6 -21 10 -13 9 -14 -3 -10 -8 3 -20 -2
-27 -11 -11 -14 -12 -14 -13 2 0 9 5 17 10 17 6 0 10 7 10 15 0 8 5 15 12 15
6 0 8 -3 5 -7z m-619 -49 c-9 -19 -9 -27 0 -33 7 -4 14 -31 16 -60 5 -51 16
-84 16 -46 0 17 2 17 20 -3 32 -34 19 -85 -23 -89 -16 -1 -15 3 8 27 27 28 27
63 0 40 -9 -8 -16 0 -29 34 -9 24 -16 48 -15 52 1 5 -1 21 -5 36 -5 16 -5 36
0 45 4 10 6 22 5 26 -1 5 3 6 8 2 7 -4 6 -15 -1 -31z m122 15 c0 -6 -4 -7 -10
-4 -5 3 -10 11 -10 16 0 6 5 7 10 4 6 -3 10 -11 10 -16z m198 -9 c113 -82 181
-250 182 -447 0 -123 -34 -287 -54 -255 -3 5 1 29 10 53 25 67 31 277 10 359
-27 107 -69 181 -141 249 -36 33 -65 63 -65 66 0 12 19 3 58 -25z m162 -7 c0
-13 -3 -13 -15 -3 -8 7 -15 19 -15 27 0 13 3 13 15 3 8 -7 15 -19 15 -27z
m-930 2 c0 -7 -7 -15 -15 -19 -15 -5 -22 24 -9 37 9 9 24 -2 24 -18z m330 13
c0 -7 -16 -24 -35 -37 -65 -44 -126 -140 -159 -250 -63 -213 7 -484 156 -601
l28 -21 -6 30 c-7 34 9 142 33 216 8 28 46 115 83 195 77 164 96 216 106 289
3 28 14 56 22 63 14 11 15 10 8 -7 -5 -11 -10 -28 -13 -37 -9 -29 25 -159 78
-299 59 -154 94 -266 108 -344 37 -198 -125 -349 -292 -272 -55 25 -117 91
-117 124 0 7 -8 17 -17 20 -34 13 -85 59 -123 111 -21 29 -40 49 -42 45 -3 -4
-3 -2 -2 4 2 7 -8 41 -21 76 -51 138 -55 306 -9 445 13 40 21 78 18 84 -4 7
-2 8 4 4 14 -8 36 30 26 46 -4 6 -3 8 4 4 6 -3 23 9 38 29 26 34 100 95 116
95 4 0 8 -6 8 -12z m207 -80 c-2 -7 -12 4 -21 26 -22 52 -20 58 5 19 11 -18
19 -38 16 -45z m23 46 c0 -22 -16 -17 -17 6 -1 11 2 18 8 15 5 -4 9 -13 9 -21z
m420 9 c0 -3 -8 -2 -17 2 -15 5 -16 4 -5 -6 16 -17 15 -26 -3 -26 -15 0 -21
28 -9 40 6 6 34 -2 34 -10z m-1020 -18 c0 -16 -6 -25 -16 -25 -10 0 -14 6 -10
15 3 8 0 15 -7 15 -8 0 -6 4 3 10 23 15 30 12 30 -15z m510 15 c0 -5 -5 -10
-11 -10 -5 0 -7 5 -4 10 3 6 8 10 11 10 2 0 4 -4 4 -10z m616 -10 c0 -11 -4
-20 -8 -20 -11 0 -20 19 -13 30 10 16 21 11 21 -10z m-436 -12 c0 -10 -4 -18
-9 -18 -5 0 -11 8 -13 18 -3 11 0 19 8 19 8 0 14 -9 14 -19z m-152 -19 c-7 -4
-7 -9 1 -13 6 -4 9 -12 6 -17 -11 -17 -22 -9 -20 14 1 12 3 29 4 37 1 13 2 13
11 0 6 -9 5 -17 -2 -21z m114 -25 c-6 -11 -11 -13 -16 -5 -4 6 -2 11 3 11 6 0
11 8 12 18 0 9 3 12 5 5 3 -7 1 -20 -4 -29z m-412 22 c0 -2 -7 -7 -16 -10 -8
-3 -12 -2 -9 4 6 10 25 14 25 6z m387 -58 c-3 -8 -6 -5 -6 6 -1 11 2 17 5 13
3 -3 4 -12 1 -19z m42 -47 c-9 -32 -10 -44 -1 -53 7 -7 12 -21 12 -32 0 -11 8
-28 18 -39 16 -19 16 -19 -8 -12 -40 12 -51 25 -40 46 6 10 8 30 4 43 -3 14
-1 41 6 61 16 50 24 37 9 -14z m-28 -2 c-9 -22 -10 -22 -10 -3 -1 11 2 24 6
27 12 12 14 0 4 -24z m-101 -104 c-7 -8 -17 -15 -22 -15 -6 0 -5 7 2 15 7 8
17 15 22 15 6 0 5 -7 -2 -15z m-96 -50 c-17 -26 -24 -31 -24 -16 0 10 28 41
36 41 2 0 -3 -11 -12 -25z m26 -5 c-6 -12 -14 -20 -17 -17 -2 3 1 14 8 26 17
26 24 19 9 -9z m-65 -4 c-8 -13 -13 -30 -10 -38 4 -9 -5 -28 -20 -44 l-27 -29
23 40 c20 35 21 38 3 24 -36 -30 -49 -32 -23 -3 15 16 32 39 38 52 6 12 16 22
22 22 5 0 3 -11 -6 -24z m94 -20 c-9 -8 -10 -7 -5 7 3 10 7 24 7 30 1 7 3 4 6
-7 3 -10 -1 -23 -8 -30z m262 -12 c6 -8 9 -14 6 -14 -8 0 -77 41 -77 45 0 9
60 -18 71 -31z m-43 -13 c3 -8 -5 -7 -22 4 -32 21 -33 27 -4 16 12 -4 24 -14
26 -20z m-18 -16 c0 -8 -2 -15 -4 -15 -2 0 -6 7 -10 15 -3 8 -1 15 4 15 6 0
10 -7 10 -15z m-267 -25 c-8 -17 -29 -45 -45 -63 -36 -37 -29 -21 19 46 40 54
48 59 26 17z m41 1 c-12 -9 -25 -27 -28 -39 -4 -12 -22 -32 -39 -44 l-32 -22
33 37 c17 21 32 44 32 51 0 15 42 47 50 39 3 -3 -5 -12 -16 -22z m-93 -32
c-34 -28 -47 -23 -14 5 15 13 30 22 33 19 3 -2 -6 -13 -19 -24z m736 -298 c19
-28 23 -47 23 -113 0 -46 -6 -93 -14 -113 -17 -40 -30 -48 -16 -9 25 65 5 237
-30 259 -24 15 -57 -5 -75 -45 -32 -72 -3 -234 48 -258 17 -8 18 -11 5 -11 -9
-1 -30 11 -47 25 -68 57 -67 203 1 276 37 39 74 36 105 -11z m-244 -278 c6 -9
0 -13 -20 -13 l-28 0 0 132 c0 73 -4 140 -8 149 -6 11 -1 18 15 26 l23 10 5
-146 c3 -80 9 -152 13 -158z m91 290 c9 -24 -9 -39 -28 -23 -9 7 -24 9 -33 6
-13 -4 -11 0 6 14 28 24 47 25 55 3z m-773 -126 c-10 -9 -11 -8 -5 6 3 10 9
15 12 12 3 -3 0 -11 -7 -18z m649 -284 c0 -42 -3 -74 -6 -70 -3 3 -6 35 -6 71
1 79 1 76 7 76 3 0 5 -34 5 -77z m167 45 c-3 -7 -5 -2 -5 12 0 14 2 19 5 13 2
-7 2 -19 0 -25z m-267 -50 c0 -39 -2 -69 -5 -66 -9 9 -13 138 -4 138 5 0 9
-32 9 -72z m250 41 c0 -11 4 -18 10 -14 9 6 -7 -54 -19 -67 -3 -4 -6 19 -6 52
0 32 3 56 8 53 4 -2 7 -13 7 -24z m50 21 c0 -5 -5 -10 -11 -10 -5 0 -7 5 -4
10 3 6 8 10 11 10 2 0 4 -4 4 -10z m-128 -45 c-3 -28 0 -50 8 -60 7 -8 8 -15
3 -15 -11 0 -33 44 -33 66 0 15 17 54 24 54 2 0 1 -20 -2 -45z m151 -30 l6
-40 -14 40 -13 40 -3 -40 c-2 -39 -2 -39 -6 -7 -5 40 4 70 16 56 5 -5 11 -27
14 -49z m77 15 c0 -13 -1 -13 -10 0 -5 8 -10 22 -10 30 0 13 1 13 10 0 5 -8
10 -22 10 -30z m-320 -1 c0 -18 -18 -9 -23 12 -4 16 -3 18 9 8 8 -6 14 -15 14
-20z m277 -26 c-3 -10 -5 -2 -5 17 0 19 2 27 5 18 2 -10 2 -26 0 -35z m-399
-30 c14 -12 14 -13 0 -13 -26 0 -41 27 -32 57 l8 28 4 -30 c2 -16 11 -36 20
-42z m75 9 c5 -7 17 -10 26 -7 13 5 14 4 3 -7 -19 -19 -47 3 -49 38 -1 18 0
22 4 9 3 -11 10 -26 16 -33z m234 6 c-3 -8 -6 -5 -6 6 -1 11 2 17 5 13 3 -3 4
-12 1 -19z m143 -481 c0 -9 22 -124 26 -139 4 -13 0 -18 -13 -18 -16 0 -18 6
-15 37 4 35 3 37 -12 23 -12 -9 -16 -24 -14 -42 4 -22 1 -28 -15 -28 -14 0
-17 3 -10 13 5 6 15 45 22 85 7 39 17 72 22 72 5 0 9 -1 9 -3z m-1169 -18 c13
-7 19 -20 19 -42 -1 -18 2 -44 6 -60 4 -16 1 -33 -6 -42 -14 -17 -90 -21 -90
-5 0 6 5 10 10 10 14 0 13 123 -2 138 -9 9 -6 12 16 12 15 0 36 -5 47 -11z
m1109 1 c0 -5 -3 -9 -7 -9 -29 5 -33 -4 -33 -66 0 -39 4 -65 11 -65 5 0 7 -4
4 -10 -3 -5 -18 -10 -33 -10 -20 0 -23 3 -14 12 17 17 16 138 -1 138 -7 0 -18
-5 -25 -12 -7 -7 -12 -9 -12 -6 0 4 6 13 14 20 16 17 96 23 96 8z m-1000 -10
c0 -5 -6 -10 -14 -10 -9 0 -14 -18 -15 -65 -2 -61 0 -65 20 -65 12 0 28 8 36
18 13 15 14 14 8 -11 -12 -58 14 -15 36 59 19 63 25 75 42 72 15 -2 25 -20 42
-78 17 -59 26 -75 41 -75 17 0 19 7 16 65 -1 36 -8 67 -14 72 -9 5 -9 8 2 12
33 10 51 0 92 -50 24 -29 46 -53 51 -54 14 0 7 69 -9 84 -14 15 -12 16 23 15
21 0 32 -3 26 -6 -9 -3 -13 -29 -13 -78 0 -41 -4 -76 -9 -79 -5 -4 -34 22 -65
56 l-56 63 0 -52 c0 -29 5 -53 10 -53 6 0 10 -4 10 -9 0 -10 -137 -7 -147 3
-3 3 1 8 9 11 19 8 12 45 -8 45 -8 0 -17 1 -20 3 -4 1 -11 -9 -15 -22 -7 -18
-6 -22 4 -18 8 3 14 -1 14 -10 0 -12 -13 -14 -71 -9 -39 3 -80 5 -90 6 -16 0
-17 3 -8 12 16 16 16 130 0 146 -9 9 -3 12 30 12 23 0 42 -4 42 -10z m879 -12
c0 -13 -3 -17 -6 -10 -2 6 -13 12 -24 12 -15 0 -19 -7 -19 -30 0 -28 2 -30 20
-20 18 10 20 8 19 -17 0 -15 -3 -22 -6 -15 -10 25 -33 12 -33 -18 0 -23 4 -30
20 -30 10 0 24 8 29 18 11 19 15 3 5 -22 -5 -12 -20 -16 -63 -15 -31 1 -48 3
-38 6 14 4 17 16 17 74 0 48 -4 69 -12 70 -25 1 28 18 60 18 27 1 32 -2 31
-21z m-338 -3 c54 -29 60 -85 13 -135 l-24 -26 33 -19 c30 -19 30 -20 10 -23
-13 -2 -35 5 -50 16 -16 10 -43 24 -61 32 -59 23 -79 81 -46 128 29 42 77 52
125 27z m121 3 c-12 -12 -16 -95 -6 -122 8 -20 62 -22 70 -3 12 32 10 110 -3
123 -12 12 -10 14 19 13 18 0 27 -3 21 -6 -8 -3 -13 -25 -13 -62 0 -71 -19
-101 -64 -101 -55 0 -69 18 -68 88 0 34 -3 62 -9 62 -5 0 -9 5 -9 10 0 6 17
10 37 10 29 0 34 -3 25 -12z m310 -483 c3 -60 -3 -75 -27 -75 -2 0 -1 19 1 43
l4 42 -16 -43 c-17 -47 -23 -47 -42 1 l-12 32 4 -42 c3 -37 1 -43 -14 -43 -17
0 -18 4 -8 30 5 17 8 48 6 70 -5 54 22 51 37 -3 10 -35 25 -41 25 -11 0 22 19
64 29 64 5 0 11 -29 13 -65z m-920 11 c-5 -38 -21 -59 -39 -52 -8 3 -13 -2
-13 -13 0 -11 6 -21 13 -24 21 -8 0 -18 -24 -12 -22 5 -24 11 -24 71 l0 65 46
-2 c44 -2 45 -3 41 -33z m118 14 c22 -22 24 -29 10 -50 -6 -10 -3 -25 10 -47
30 -50 -8 -44 -43 7 -16 23 -17 24 -17 3 0 -12 6 -23 13 -26 24 -8 0 -17 -32
-11 -21 5 -28 10 -22 18 11 13 10 91 -1 102 -16 16 -7 24 27 24 22 0 43 -8 55
-20z m572 -35 c-4 -59 13 -80 43 -55 18 15 20 81 3 98 -9 9 -8 12 8 12 18 0
19 -5 14 -61 -6 -60 -18 -79 -51 -79 -31 0 -47 24 -51 83 -4 52 -3 57 16 57
19 0 21 -5 18 -55z m-402 23 c0 -17 -3 -19 -12 -10 -19 19 -38 14 -38 -9 0
-18 4 -20 25 -15 21 5 25 3 25 -14 0 -17 -4 -19 -25 -14 -21 5 -25 3 -25 -15
0 -24 28 -29 48 -9 9 9 12 7 12 -10 0 -20 -5 -22 -55 -22 -30 0 -55 5 -55 10
0 6 5 10 10 10 14 0 12 94 -2 108 -9 9 0 12 40 12 47 0 52 -2 52 -22z m113
-25 l24 -46 18 46 c11 29 24 47 34 47 13 0 16 -11 15 -60 -1 -33 3 -60 7 -60
5 0 9 -4 9 -10 0 -5 -13 -10 -29 -10 -28 0 -30 2 -25 38 l4 37 -18 -37 c-9
-21 -21 -38 -25 -38 -4 0 -16 19 -27 43 -18 41 -19 42 -19 12 -1 -17 4 -36 11
-43 9 -9 6 -12 -16 -12 -22 0 -26 4 -22 18 3 9 7 41 8 70 3 66 20 68 51 5z
m201 35 c-11 -18 -12 -91 -1 -105 7 -9 5 -13 -6 -13 -8 0 -21 -2 -29 -5 -10
-4 -13 11 -13 65 l0 70 28 0 c20 0 26 -4 21 -12z m409 -108 c-88 -35 -514 -65
-813 -56 -193 5 -424 27 -438 41 -12 11 5 13 58 5 271 -42 920 -36 1135 9 22
5 49 9 60 9 18 1 18 0 -2 -8z m-101 -102 l-4 -42 -19 23 -19 23 0 -26 c0 -14
-3 -26 -8 -26 -4 0 -6 19 -4 42 l4 42 19 -23 19 -23 0 26 c0 14 3 26 8 26 4 0
6 -19 4 -42z m-77 -7 c0 -41 -25 -62 -49 -42 -21 17 -20 45 0 66 26 26 49 15
49 -24z m-883 -8 c-4 -30 -2 -35 12 -30 10 4 16 1 16 -8 0 -9 -10 -15 -25 -15
-23 0 -25 4 -25 45 0 30 4 45 13 45 9 0 12 -11 9 -37z m103 3 l11 -27 12 26
c18 39 32 30 32 -20 0 -32 -4 -45 -14 -45 -9 0 -12 8 -9 23 5 21 4 21 -9 -2
-14 -26 -14 -26 -58 -16 -28 6 -30 10 -30 50 0 42 1 43 27 41 19 -2 31 -12 38
-30z m675 24 c0 -5 -7 -10 -16 -10 -13 0 -15 -8 -12 -35 3 -25 0 -35 -9 -35
-8 0 -13 6 -12 13 4 30 -2 58 -11 52 -11 -7 -14 8 -3 18 10 11 63 8 63 -3z
m30 -30 c0 -22 -4 -40 -10 -40 -5 0 -10 18 -10 40 0 22 5 40 10 40 6 0 10 -18
10 -40z m-610 -15 c0 -25 -4 -45 -9 -45 -5 0 -11 20 -13 45 -2 31 1 45 9 45 9
0 13 -16 13 -45z m90 35 c0 -5 -7 -10 -16 -10 -13 0 -15 -8 -12 -35 3 -27 0
-35 -12 -35 -12 0 -15 8 -12 35 3 27 1 35 -12 35 -9 0 -16 5 -16 10 0 6 18 10
40 10 22 0 40 -4 40 -10z m68 -8 c2 -7 -3 -10 -12 -6 -9 3 -16 1 -16 -5 0 -6
7 -11 15 -11 8 0 15 -5 15 -11 0 -6 -7 -9 -15 -5 -9 3 -15 0 -15 -10 0 -10 6
-14 15 -10 8 3 15 1 15 -4 0 -6 -12 -10 -27 -10 -26 0 -28 2 -26 42 1 24 2 43
2 44 5 6 46 -6 49 -14z m42 -33 c0 -21 -4 -39 -10 -39 -5 0 -10 21 -10 46 0
27 4 43 10 39 6 -3 10 -24 10 -46z m160 41 c0 -5 -7 -10 -15 -10 -21 0 -19
-20 3 -21 16 -1 16 -2 0 -6 -10 -2 -18 -11 -18 -19 0 -11 6 -13 20 -9 11 4 20
2 20 -4 0 -6 -15 -11 -33 -11 -32 0 -32 0 -29 45 4 40 7 45 28 45 13 0 24 -4
24 -10z m88 -2 c28 -28 1 -78 -44 -78 -22 0 -24 4 -24 45 0 43 1 45 28 45 15
0 33 -5 40 -12z m42 -28 c0 -22 -3 -40 -8 -40 -4 0 -8 18 -8 40 -1 22 2 40 7
40 5 0 9 -18 9 -40z m-236 7 c14 -21 -3 -51 -30 -55 -18 -3 -18 -2 -1 8 20 13
22 40 5 59 -11 11 -10 13 1 9 8 -2 19 -12 25 -21z m606 -337 c0 -5 -5 -10 -11
-10 -5 0 -7 5 -4 10 3 6 8 10 11 10 2 0 4 -4 4 -10z m-1178 -20 c10 0 23 -10
28 -22 7 -18 9 -19 9 -5 1 18 21 24 21 6 0 -8 4 -8 13 -1 10 9 46 9 89 0 7 -2
12 5 12 14 -1 10 4 14 12 11 8 -3 14 -11 14 -19 0 -8 7 -14 15 -14 8 0 15 -6
16 -12 0 -10 2 -10 6 0 8 21 23 13 23 -13 0 -27 -9 -32 -28 -13 -7 7 -12 8
-12 2 0 -11 -88 -16 -104 -6 -13 8 -42 12 -84 12 -28 1 -32 3 -27 20 4 11 2
20 -4 20 -6 0 -11 -8 -12 -17 -1 -12 -4 -10 -9 7 -7 23 -8 23 -9 3 -1 -15 -6
-20 -18 -18 -10 2 -21 4 -25 4 -5 1 -8 13 -8 27 0 24 3 26 31 20 17 -3 40 -6
51 -6z m1120 -14 c4 -17 1 -23 -9 -19 -14 5 -17 25 -6 36 9 10 10 9 15 -17z
m31 4 c3 -11 1 -20 -4 -20 -5 0 -9 9 -9 20 0 11 2 20 4 20 2 0 6 -9 9 -20z
m-63 -16 c0 -15 -5 -22 -13 -18 -18 6 -19 41 -1 41 8 0 14 -10 14 -23z m-80 9
c-1 -11 -26 -43 -34 -43 -4 0 -3 27 3 48 2 6 31 1 31 -5z m16 -28 c-3 -8 -10
-15 -15 -15 -7 0 -6 10 1 26 12 26 25 16 14 -11z m21 3 c-3 -7 -5 -2 -5 12 0
14 2 19 5 13 2 -7 2 -19 0 -25z m156 -38 c3 -11 1 -18 -4 -14 -5 3 -9 0 -9 -7
0 -8 -4 -8 -15 1 -8 7 -15 17 -15 22 0 6 7 5 15 -2 12 -10 15 -10 15 4 0 22 7
20 13 -4z m-78 -29 c-3 -12 -10 -19 -15 -16 -5 3 -11 1 -15 -5 -12 -19 -25
-10 -24 18 l1 27 7 -25 c5 -17 9 -21 15 -12 4 6 4 18 0 25 -5 8 -2 8 9 -2 15
-12 17 -11 17 4 0 10 3 16 6 12 3 -3 3 -15 -1 -26z m41 -9 c-9 -8 -26 10 -26
26 1 15 2 15 15 -2 8 -11 13 -21 11 -24z m-1151 18 c4 -6 11 -8 16 -5 5 4 9
-5 9 -19 0 -26 -19 -38 -21 -13 0 8 -2 8 -5 1 -9 -21 -41 -4 -41 22 0 25 29
35 42 14z m115 0 c0 -5 9 -10 19 -10 23 0 35 -28 20 -46 -7 -9 -21 -11 -37 -7
-15 3 -32 6 -39 6 -7 0 -13 6 -13 14 0 17 -17 17 -23 1 -3 -7 -6 0 -6 16 -1
26 1 28 29 24 17 -3 30 -1 30 4 0 4 5 8 10 8 6 0 10 -4 10 -10z m916 -14 c0
-16 -5 -24 -16 -23 -9 0 -16 9 -16 18 0 10 4 15 8 13 4 -3 8 0 8 5 0 6 4 11 8
11 4 0 8 -11 8 -24z m-49 -23 c-3 -10 -5 -4 -5 12 0 17 2 24 5 18 2 -7 2 -21
0 -30z m-337 -30 c0 -7 -4 -13 -9 -13 -5 0 -12 6 -14 13 -3 7 -6 5 -6 -5 -1
-10 -6 -18 -12 -18 -6 0 -8 7 -5 16 3 9 6 28 6 42 l0 27 20 -25 c11 -14 20
-31 20 -37z m30 22 c0 -19 -4 -35 -9 -35 -11 0 -21 38 -14 56 10 26 23 14 23
-21z m30 4 c0 -24 4 -30 15 -25 8 3 15 1 15 -4 0 -6 -11 -10 -25 -10 -22 0
-25 4 -25 35 0 19 5 35 10 35 6 0 10 -14 10 -31z m-218 12 c-11 -7 -11 -9 2
-14 10 -4 16 -1 16 8 0 8 9 15 20 15 11 0 20 -6 20 -12 0 -9 3 -9 9 1 12 18
41 7 41 -16 0 -31 -17 -50 -31 -36 -9 9 -16 10 -26 2 -9 -8 -17 -8 -27 0 -10
8 -16 9 -21 1 -8 -13 -35 -13 -35 1 0 6 7 9 15 5 8 -3 15 -1 15 5 0 5 -6 12
-13 15 -22 8 -16 34 7 34 15 0 17 -3 8 -9z"/>
<path d="M2110 5171 c0 -27 14 -33 36 -16 16 13 17 16 4 25 -24 15 -40 12 -40
-9z"/>
<path d="M2200 5180 c13 -9 13 -11 0 -20 -12 -7 -10 -9 8 -7 30 2 30 37 0 37
-19 0 -20 -2 -8 -10z"/>
<path d="M2360 5160 c0 -6 7 -10 15 -10 8 0 15 2 15 4 0 2 -7 6 -15 10 -8 3
-15 1 -15 -4z"/>
<path d="M2450 5170 c0 -28 2 -30 20 -20 11 6 20 15 20 20 0 5 -9 14 -20 20
-18 10 -20 8 -20 -20z"/>
<path d="M2620 5171 c0 -22 23 -34 38 -19 15 15 3 38 -19 38 -12 0 -19 -7 -19
-19z"/>
<path d="M2080 5050 c0 -19 3 -21 12 -12 9 9 9 15 0 24 -9 9 -12 7 -12 -12z"/>
<path d="M2030 5020 c0 -22 5 -40 10 -40 6 0 10 18 10 40 0 22 -4 40 -10 40
-5 0 -10 -18 -10 -40z"/>
<path d="M2310 5055 c0 -9 5 -15 11 -13 6 2 11 8 11 13 0 5 -5 11 -11 13 -6 2
-11 -4 -11 -13z"/>
<path d="M2310 5005 c0 -8 6 -15 14 -15 22 0 28 17 10 24 -22 9 -24 8 -24 -9z"/>
<path d="M2870 5040 c0 -11 5 -20 10 -20 6 0 10 9 10 20 0 11 -4 20 -10 20 -5
0 -10 -9 -10 -20z"/>
<path d="M2340 4854 c0 -8 5 -12 10 -9 6 4 8 11 5 16 -9 14 -15 11 -15 -7z"/>
<path d="M2620 4855 c-10 -12 -10 -18 0 -30 15 -18 30 -11 30 15 0 26 -15 33
-30 15z"/>
<path d="M1930 4849 c0 -5 6 -9 13 -9 8 0 7 -3 -3 -10 -18 -11 -6 -25 15 -16
21 8 15 38 -7 42 -10 1 -18 -2 -18 -7z"/>
<path d="M2900 4835 c0 -25 14 -34 24 -16 8 12 -3 41 -15 41 -5 0 -9 -11 -9
-25z"/>
<path d="M2693 4445 c-6 -6 -8 -18 -3 -24 5 -9 9 -5 13 10 7 28 6 31 -10 14z"/>
<path d="M2057 4336 c-3 -8 1 -17 9 -20 8 -3 14 1 14 9 0 20 -17 28 -23 11z"/>
<path d="M1895 4227 c-7 -7 -4 -18 11 -34 12 -13 24 -23 28 -23 4 0 1 7 -8 15
-8 9 -13 22 -10 29 7 18 -8 27 -21 13z"/>
<path d="M2196 4197 c3 -10 9 -15 12 -12 3 3 0 11 -7 18 -10 9 -11 8 -5 -6z"/>
<path d="M2216 4174 c-9 -24 -2 -26 12 -4 7 11 8 20 3 20 -5 0 -12 -7 -15 -16z"/>
<path d="M2140 4154 c0 -5 7 -19 15 -30 8 -10 15 -14 15 -8 0 5 -7 19 -15 30
-8 10 -15 14 -15 8z"/>
<path d="M2196 4124 c-8 -21 -8 -39 1 -30 8 7 15 46 9 46 -2 0 -7 -7 -10 -16z"/>
<path d="M2046 4085 c4 -8 8 -15 10 -15 2 0 4 7 4 15 0 8 -4 15 -10 15 -5 0
-7 -7 -4 -15z"/>
<path d="M2020 4049 c7 -11 14 -19 16 -16 7 7 -7 37 -17 37 -6 0 -5 -9 1 -21z"/>
<path d="M1873 4048 c3 -9 1 -18 -5 -20 -6 -2 -3 -10 6 -17 15 -13 16 -11 12
14 -3 15 -8 30 -12 34 -4 3 -4 -2 -1 -11z"/>
<path d="M2300 4026 c0 -2 8 -10 18 -17 15 -13 16 -12 3 4 -13 16 -21 21 -21
13z"/>
<path d="M1976 4003 c-6 -14 -5 -15 5 -6 7 7 10 15 7 18 -3 3 -9 -2 -12 -12z"/>
<path d="M2135 3866 c32 -14 41 -13 30 3 -3 6 -18 11 -33 11 l-27 -1 30 -13z"/>
<path d="M2035 3849 c-4 -6 -4 -13 -1 -16 3 -4 6 -1 6 7 0 10 4 10 18 -1 15
-13 16 -12 3 4 -16 20 -18 20 -26 6z"/>
<path d="M2065 3680 c3 -5 2 -10 -3 -10 -15 0 -23 -43 -9 -52 15 -10 36 -10
21 0 -22 14 -11 41 19 48 22 4 26 8 16 15 -19 12 -52 11 -44 -1z"/>
<path d="M2180 3658 c-12 -22 -12 -22 6 -6 10 10 15 20 12 24 -4 3 -12 -5 -18
-18z"/>
<path d="M2331 4201 c-9 -16 -8 -18 9 -14 11 3 20 12 20 19 0 20 -18 17 -29
-5z"/>
<path d="M2580 4206 c0 -7 9 -16 20 -19 17 -4 18 -2 9 14 -11 22 -29 25 -29 5z"/>
<path d="M2711 4173 c7 -12 15 -20 18 -17 3 2 -3 12 -13 22 -17 16 -18 16 -5
-5z"/>
<path d="M2751 4150 c0 -8 3 -21 8 -29 7 -10 12 -8 25 10 11 16 13 25 5 28 -6
2 -15 -2 -19 -9 -6 -9 -9 -9 -13 1 -4 11 -6 11 -6 -1z"/>
<path d="M2728 4115 c2 -14 9 -25 14 -25 6 0 7 7 4 16 -3 9 -6 20 -6 25 0 5
-4 9 -9 9 -4 0 -6 -11 -3 -25z"/>
<path d="M2970 4180 c0 -5 5 -10 10 -10 6 0 10 5 10 10 0 6 -4 10 -10 10 -5 0
-10 -4 -10 -10z"/>
<path d="M2595 4120 c-3 -5 -1 -10 4 -10 6 0 11 5 11 10 0 6 -2 10 -4 10 -3 0
-8 -4 -11 -10z"/>
<path d="M2620 4015 c-11 -13 -10 -14 4 -9 9 3 16 10 16 15 0 13 -6 11 -20 -6z"/>
<path d="M2857 3843 c-4 -3 -7 -11 -7 -17 0 -6 5 -5 12 2 6 6 9 14 7 17 -3 3
-9 2 -12 -2z"/>
<path d="M2620 3769 c0 -5 5 -7 10 -4 6 3 10 8 10 11 0 2 -4 4 -10 4 -5 0 -10
-5 -10 -11z"/>
<path d="M2792 3631 c-11 -7 -11 -9 2 -14 10 -4 16 -1 16 8 0 17 -1 17 -18 6z"/>
<path d="M2476 3103 c-69 -237 -92 -416 -62 -487 28 -68 113 -99 162 -58 84
68 75 184 -38 487 -22 61 -42 111 -43 113 -1 1 -9 -24 -19 -55z"/>
<path d="M3030 1830 c0 -11 4 -20 9 -20 5 0 7 9 4 20 -3 11 -7 20 -9 20 -2 0
-4 -9 -4 -20z"/>
<path d="M1850 1835 c0 -14 4 -25 9 -25 12 0 19 21 13 38 -8 21 -22 13 -22
-13z"/>
<path d="M1852 1764 c3 -44 21 -53 26 -13 2 15 -4 31 -13 39 -15 12 -16 10
-13 -26z"/>
<path d="M2086 1795 c-3 -8 -1 -15 4 -15 6 0 10 7 10 15 0 8 -2 15 -4 15 -2 0
-6 -7 -10 -15z"/>
<path d="M2446 1824 c-22 -22 -21 -87 2 -107 39 -36 92 -7 92 49 0 61 -56 96
-94 58z"/>
<path d="M1990 1364 c0 -14 4 -23 10 -19 6 3 10 15 10 26 0 10 -4 19 -10 19
-5 0 -10 -12 -10 -26z"/>
<path d="M2120 1366 c0 -14 5 -26 10 -26 6 0 10 9 10 19 0 11 -4 23 -10 26 -6
4 -10 -5 -10 -19z"/>
<path d="M2834 1186 c-8 -21 -1 -49 13 -53 6 -2 14 5 17 15 12 36 -17 72 -30
38z"/>
<path d="M2050 1150 c0 -16 5 -30 10 -30 6 0 10 14 10 30 0 17 -4 30 -10 30
-5 0 -10 -13 -10 -30z"/>
<path d="M2080 1135 c0 -5 5 -17 10 -25 5 -8 10 -10 10 -5 0 6 -5 17 -10 25
-5 8 -10 11 -10 5z"/>
<path d="M2590 1144 c0 -23 4 -34 12 -32 33 11 36 68 3 68 -11 0 -15 -10 -15
-36z"/>
<path d="M1811 784 c0 -11 3 -14 6 -6 3 7 2 16 -1 19 -3 4 -6 -2 -5 -13z"/>
<path d="M1950 761 c0 -12 5 -21 10 -21 6 0 10 6 10 14 0 8 -4 18 -10 21 -5 3
-10 -3 -10 -14z"/>
<path d="M1990 756 c0 -9 5 -16 10 -16 6 0 10 4 10 9 0 6 -4 13 -10 16 -5 3
-10 -1 -10 -9z"/>
<path d="M2050 750 c0 -19 3 -21 12 -12 9 9 9 15 0 24 -9 9 -12 7 -12 -12z"/>
<path d="M2010 665 c0 -8 5 -15 10 -15 6 0 10 7 10 15 0 8 -4 15 -10 15 -5 0
-10 -7 -10 -15z"/>
<path d="M2400 644 c0 -14 4 -23 10 -19 6 3 10 15 10 26 0 10 -4 19 -10 19 -5
0 -10 -12 -10 -26z"/>
<path d="M2450 645 c0 -15 4 -24 10 -20 6 3 10 12 10 20 0 8 -4 17 -10 20 -6
4 -10 -5 -10 -20z"/>
</g>
</svg>
